<svg width="17" height="18" viewBox="0 0 17 18" fill="none" xmlns="http://www.w3.org/2000/svg">
<path d="M1.74984 12.3616L5.47807 15.7044L13.386 6.89112L9.65724 3.54665L1.74984 12.3616ZM8.72291 7.63814L4.28297 12.5877C4.22717 12.6492 4.14973 12.6873 4.06661 12.6919C3.98348 12.697 3.90149 12.6679 3.84 12.6116L3.61965 12.4134C3.49097 12.2979 3.48015 12.0997 3.59574 11.971L8.03568 7.02151C8.09148 6.95945 8.16891 6.92187 8.25204 6.91731C8.33517 6.91276 8.41716 6.9418 8.47865 6.99703L8.69899 7.1946C8.82767 7.31075 8.83792 7.50889 8.72291 7.63814ZM10.0142 5.28493L10.234 5.48193C10.3638 5.59752 10.3741 5.79623 10.2585 5.9249L9.87246 6.35535C9.81553 6.41741 9.73866 6.45442 9.65553 6.45954C9.57241 6.4641 9.49099 6.43563 9.42892 6.37983L9.20858 6.18226C9.14709 6.12646 9.10951 6.04903 9.10382 5.96533C9.09926 5.8822 9.1283 5.80021 9.18467 5.73872L9.5707 5.30828C9.68685 5.1796 9.88556 5.16878 10.0142 5.28493ZM10.9332 2.12493L14.6609 5.46884L13.7453 6.48972L10.0182 3.14581L10.9332 2.12493ZM16.16 2.17333L14.0471 0.27733C13.6013 -0.122936 12.9163 -0.0853581 12.5166 0.360458L11.2708 1.74972L14.9991 5.09306L16.2448 3.70493C16.4362 3.49085 16.5369 3.20901 16.5193 2.92205C16.5033 2.63452 16.3741 2.36521 16.16 2.17333ZM14.9222 3.69981L12.6624 1.67342L13.3149 0.946908L15.5741 2.97272L14.9222 3.69981ZM0.0212364 17.3106C-0.0362699 17.5099 0.025222 17.7245 0.178952 17.8617C0.332681 18.0001 0.552458 18.0382 0.743766 17.9602L5.03055 16.2043L1.30346 12.8604L0.0212364 17.3106ZM3.81039 15.9925L2.12619 16.682L1.14119 15.7983L1.64508 14.0498L3.81039 15.9925Z" fill="#0072BB"/>
</svg>
