<svg width="458" height="458" viewBox="0 0 458 458" fill="none" xmlns="http://www.w3.org/2000/svg">
<g clip-path="url(#clip0_208_96)">
<rect width="458" height="458" fill="white"/>
<g opacity="0.5" filter="url(#filter0_f_208_96)">
<circle cx="268.5" cy="175.5" r="211.5" fill="white" fill-opacity="0.36"/>
</g>
<path d="M380.294 220.341C379.192 218.186 377.006 216.846 374.592 216.846C373.583 216.846 372.574 217.089 371.673 217.558C342.79 232.43 317.839 243.347 297.499 250.015C292.679 243.755 285.841 238.737 277.677 235.475C271.605 233.048 265.15 231.769 259.008 231.769C257.406 231.769 255.818 231.858 254.296 232.032C245.795 233.011 238.892 236.731 234.866 242.504C230.513 248.74 230.901 257.043 235.81 262.689C240.429 268.003 248.205 270.697 258.934 270.697C264.267 270.697 270.428 270.027 277.238 268.705C281.619 267.857 286.355 266.719 291.32 265.323C292.361 268.705 292.599 272.384 292.025 276.259C289.451 293.67 280.708 307.938 266.038 318.668C257.542 324.881 247.458 329.655 236.066 332.86C226.043 335.681 215.245 337.171 204.834 337.171C199.384 337.171 194.185 336.768 189.388 335.971C175.582 333.68 162.911 326.821 152.743 316.133C142.799 305.675 135.401 291.815 131.356 276.057C125.836 254.55 126.919 230.42 134.406 208.107C142.86 182.917 159.286 160.141 181.915 142.237C199.603 128.242 218.477 120.848 236.491 120.848C238.584 120.848 240.69 120.946 242.75 121.143C258.91 122.685 273.571 130.238 282.973 141.858C290.46 151.112 292.796 162.442 293.435 170.318C294.145 179.075 292.992 185.663 292.982 185.729C292.333 189.201 294.626 192.565 298.097 193.221C298.489 193.296 298.891 193.333 299.288 193.333C302.361 193.333 305.009 191.131 305.579 188.095C305.822 186.811 311.263 156.425 292.922 133.757C281.371 119.48 263.525 110.216 243.969 108.351C241.536 108.117 239.042 108 236.557 108C227.239 108 217.758 109.631 208.374 112.845C196.679 116.851 185.105 123.345 173.98 132.149C149.394 151.599 131.51 176.451 122.263 204.007C113.874 229.005 112.73 255.024 118.946 279.262C123.538 297.147 132.015 312.965 143.472 325.007C155.573 337.729 170.725 345.905 187.296 348.655C192.672 349.546 198.487 350 204.587 350C216.277 350 228.421 348.318 239.705 345.132C252.563 341.505 263.959 336.093 273.585 329.056C290.89 316.4 301.651 298.796 304.701 278.142C305.551 272.388 305.154 266.808 303.519 261.541C324.168 254.593 349.058 243.647 377.52 228.991C380.663 227.374 381.906 223.49 380.294 220.336V220.341ZM283.791 254.049C280.661 254.85 277.649 255.539 274.804 256.087C268.812 257.249 263.501 257.84 259.022 257.84C249.34 257.84 246.197 255.089 245.464 254.246C243.764 252.287 245.188 250.123 245.356 249.879C247.678 246.552 252.68 244.64 259.074 244.64C263.59 244.64 268.378 245.601 272.927 247.419C275.318 248.375 279.737 250.455 283.786 254.049H283.791Z" fill="#FECB2B"/>
<path d="M245.263 338.858C245.263 335.325 242.285 332.345 238.755 332.345C238.478 332.345 238.202 332.368 237.935 332.406C237.416 332.56 236.896 332.715 236.371 332.86C226.323 335.681 215.497 337.171 205.06 337.171C199.596 337.171 194.385 336.768 189.576 335.971C175.735 333.68 163.032 326.821 152.838 316.133C142.869 305.675 135.452 291.815 131.397 276.057C125.863 254.55 126.949 230.42 134.455 208.107C142.93 182.917 159.398 160.141 182.084 142.237C199.816 128.242 218.738 120.848 236.798 120.848C238.895 120.848 241.007 120.946 243.072 121.143C259.273 122.685 273.971 130.238 283.396 141.858C290.902 151.112 293.243 162.442 293.885 170.318C294.597 179.075 293.44 185.663 293.431 185.729C292.78 189.201 295.079 192.565 298.558 193.221C298.951 193.296 299.354 193.333 299.752 193.333C302.833 193.333 305.488 191.131 306.059 188.095C306.303 186.811 311.758 156.425 293.37 133.757C281.79 119.48 263.899 110.216 244.294 108.351C241.854 108.117 239.354 108 236.863 108C227.522 108 218.017 109.631 208.61 112.845C196.885 116.851 185.282 123.345 174.129 132.149C149.481 151.599 131.552 176.451 122.281 204.007C113.871 229.005 112.724 255.024 118.956 279.262C123.559 297.147 132.058 312.965 143.544 325.007C155.676 337.729 170.865 345.905 187.478 348.655C192.868 349.546 198.697 350 204.812 350C216.532 350 228.706 348.318 240.019 345.132C240.557 344.982 241.091 344.822 241.62 344.663C243.751 343.576 245.263 341.35 245.263 338.853V338.858Z" fill="#E6007E"/>
<path d="M116.258 226.894C116.268 230.437 119.249 233.424 122.779 233.424C125.788 233.424 128.408 231.228 129.112 228.382C130.206 221.73 131.835 215.124 134 208.664C142.497 183.334 159.008 160.431 181.754 142.428C199.533 128.354 218.505 120.919 236.612 120.919C238.715 120.919 240.833 121.018 242.903 121.216C259.147 122.766 273.884 130.361 283.334 142.046C290.86 151.352 293.207 162.745 293.85 170.665C294.564 179.471 293.404 186.095 293.395 186.161C292.742 189.653 295.047 193.036 298.536 193.695C298.93 193.771 299.334 193.808 299.733 193.808C302.822 193.808 305.484 191.594 306.057 188.541C306.301 187.25 311.77 156.695 293.334 133.9C281.729 119.544 263.79 110.229 244.133 108.353C241.687 108.118 239.18 108 236.683 108C227.317 108 217.786 109.64 208.355 112.872C196.599 116.9 184.966 123.431 173.783 132.284C149.07 151.842 131.094 176.832 121.798 204.542C118.206 215.246 115.944 226.14 115 237C115.291 233.631 115.714 230.262 116.258 226.894Z" fill="#70B852"/>
<path d="M211.019 111.86C208.687 112.863 207 115.197 207 117.819C207 121.338 209.996 124.306 213.549 124.306C213.86 124.306 214.166 124.274 214.467 124.232C221.817 121.964 229.162 120.802 236.365 120.802C238.476 120.802 240.6 120.9 242.678 121.096C258.979 122.631 273.767 130.154 283.251 141.728C290.803 150.946 293.159 162.23 293.804 170.076C294.52 178.798 293.357 185.36 293.347 185.425C292.692 188.884 295.005 192.235 298.506 192.888C298.902 192.963 299.307 193 299.707 193C302.807 193 305.479 190.807 306.053 187.782C306.298 186.504 311.787 156.238 293.286 133.659C281.63 119.434 263.629 110.207 243.903 108.35C241.448 108.117 238.933 108 236.426 108C227.531 108 218.495 109.456 209.53 112.322C210.025 112.163 210.519 112.009 211.019 111.86Z" fill="#1D1D1B"/>
</g>
<defs>
<filter id="filter0_f_208_96" x="-243" y="-336" width="1023" height="1023" filterUnits="userSpaceOnUse" color-interpolation-filters="sRGB">
<feFlood flood-opacity="0" result="BackgroundImageFix"/>
<feBlend mode="normal" in="SourceGraphic" in2="BackgroundImageFix" result="shape"/>
<feGaussianBlur stdDeviation="150" result="effect1_foregroundBlur_208_96"/>
</filter>
<clipPath id="clip0_208_96">
<rect width="458" height="458" fill="white"/>
</clipPath>
</defs>
</svg>
