<svg width="229" height="64" viewBox="0 0 229 64" fill="none" xmlns="http://www.w3.org/2000/svg">
<path d="M51.6594 21.9444C51.4448 21.5234 51.0191 21.2616 50.5489 21.2616C50.3525 21.2616 50.1561 21.3092 49.9805 21.4008C44.3563 24.3058 39.4979 26.4384 35.5371 27.7408C34.5985 26.518 33.2671 25.5378 31.6773 24.9007C30.495 24.4266 29.2381 24.1768 28.0421 24.1768C27.7302 24.1768 27.4209 24.1941 27.1245 24.228C25.4692 24.4193 24.125 25.146 23.341 26.2736C22.4934 27.4919 22.5689 29.1137 23.5247 30.2166C24.4242 31.2545 25.9385 31.7808 28.0276 31.7808C29.0662 31.7808 30.2658 31.6499 31.5918 31.3918C32.4449 31.2261 33.3671 31.0037 34.3339 30.731C34.5367 31.3918 34.5831 32.1103 34.4712 32.8672C33.9701 36.2683 32.2675 39.0553 29.4109 41.1513C27.7565 42.3649 25.793 43.2976 23.5748 43.9236C21.623 44.4746 19.5203 44.7657 17.4931 44.7657C16.4317 44.7657 15.4195 44.687 14.4854 44.5314C11.797 44.0838 9.32962 42.7439 7.34969 40.6561C5.41341 38.6133 3.9728 35.9059 3.18519 32.8279C2.11019 28.6268 2.32119 23.9132 3.77908 19.5547C5.42524 14.6342 8.62387 10.1851 13.0303 6.68785C16.4745 3.95395 20.1497 2.50966 23.6575 2.50966C24.065 2.50966 24.4751 2.52888 24.8762 2.56732C28.023 2.86844 30.8779 4.34385 32.7086 6.61371C34.1665 8.42137 34.6213 10.6345 34.7459 12.173C34.8841 13.8837 34.6595 15.1705 34.6577 15.1834C34.5312 15.8616 34.9778 16.5187 35.6535 16.6469C35.7299 16.6615 35.8081 16.6688 35.8854 16.6688C36.4839 16.6688 36.9996 16.2387 37.1105 15.6456C37.1578 15.3948 38.2173 9.45928 34.6458 5.03122C32.3967 2.2424 28.9216 0.432921 25.1136 0.068645C24.6398 0.0228817 24.1541 0 23.6703 0C21.8559 0 20.0096 0.318513 18.1825 0.946385C15.9051 1.72894 13.6515 2.9975 11.4851 4.71728C6.6976 8.51655 3.21521 13.3711 1.41444 18.7538C-0.218979 23.6368 -0.441801 28.7192 0.768713 33.4539C1.66273 36.9475 3.31343 40.0374 5.54438 42.3896C7.90083 44.8746 10.8512 46.4717 14.078 47.009C15.1248 47.1829 16.2571 47.2717 17.4449 47.2717C19.7213 47.2717 22.0859 46.9431 24.2832 46.3207C26.787 45.6123 29.0062 44.5552 30.8806 43.1804C34.2502 40.7083 36.3456 37.2696 36.9395 33.2351C37.1051 32.1112 37.0277 31.0211 36.7094 29.9924C40.7302 28.635 45.5768 26.497 51.1192 23.634C51.7313 23.3182 51.9732 22.5595 51.6594 21.9435V21.9444ZM32.8678 28.5289C32.2585 28.6854 31.6718 28.8199 31.118 28.927C29.9511 29.154 28.917 29.2693 28.0448 29.2693C26.1595 29.2693 25.5474 28.732 25.4046 28.5673C25.0736 28.1847 25.351 27.7619 25.3837 27.7143C25.8357 27.0644 26.8098 26.691 28.0548 26.691C28.9343 26.691 29.8665 26.8786 30.7524 27.2337C31.218 27.4205 32.0784 27.8268 32.8669 28.5289H32.8678Z" fill="#FECB2B"/>
<path d="M25.3019 45.0952C25.3019 44.4051 24.7234 43.8229 24.0377 43.8229C23.984 43.8229 23.9304 43.8275 23.8785 43.8348C23.7776 43.8651 23.6766 43.8953 23.5748 43.9236C21.623 44.4746 19.5203 44.7657 17.4931 44.7657C16.4317 44.7657 15.4195 44.687 14.4854 44.5314C11.797 44.0838 9.32962 42.7439 7.34969 40.6561C5.41341 38.6133 3.9728 35.9059 3.18519 32.8279C2.11019 28.6268 2.32119 23.9132 3.77908 19.5547C5.42524 14.6342 8.62387 10.1851 13.0303 6.68785C16.4745 3.95395 20.1497 2.50966 23.6575 2.50966C24.065 2.50966 24.4751 2.52888 24.8762 2.56732C28.023 2.86844 30.8779 4.34385 32.7086 6.61371C34.1665 8.42137 34.6213 10.6345 34.7459 12.173C34.8841 13.8837 34.6595 15.1705 34.6577 15.1834C34.5312 15.8616 34.9778 16.5187 35.6535 16.6469C35.7299 16.6615 35.8081 16.6688 35.8854 16.6688C36.4839 16.6688 36.9996 16.2387 37.1105 15.6456C37.1578 15.3948 38.2173 9.45928 34.6458 5.03122C32.3967 2.2424 28.9216 0.432921 25.1136 0.068645C24.6398 0.0228817 24.1541 0 23.6703 0C21.8559 0 20.0096 0.318513 18.1825 0.946385C15.9051 1.72894 13.6515 2.9975 11.4851 4.71728C6.6976 8.51655 3.21521 13.3711 1.41444 18.7538C-0.218979 23.6368 -0.441801 28.7192 0.768713 33.4539C1.66273 36.9475 3.31343 40.0374 5.54438 42.3896C7.90083 44.8746 10.8512 46.4717 14.078 47.009C15.1248 47.1829 16.2571 47.2717 17.4449 47.2717C19.7213 47.2717 22.086 46.9431 24.2832 46.3207C24.3878 46.2914 24.4915 46.2603 24.5943 46.2292C25.0081 46.0168 25.3019 45.5821 25.3019 45.0943V45.0952Z" fill="#E6007E"/>
<path d="M0.34103 23.0958C0.342849 23.7841 0.920367 24.3644 1.60429 24.3644C2.18727 24.3644 2.69476 23.9379 2.83118 23.3851C3.04309 22.0927 3.35868 20.8095 3.77794 19.5547C5.4241 14.6342 8.62273 10.1851 13.0291 6.68785C16.4733 3.95395 20.1485 2.50966 23.6564 2.50966C24.0638 2.50966 24.474 2.52888 24.8751 2.56732C28.0219 2.86844 30.8767 4.34385 32.7075 6.61371C34.1654 8.42137 34.6201 10.6345 34.7447 12.173C34.883 13.8837 34.6583 15.1705 34.6565 15.1834C34.5301 15.8616 34.9767 16.5187 35.6524 16.6469C35.7288 16.6615 35.807 16.6688 35.8843 16.6688C36.4827 16.6688 36.9984 16.2387 37.1094 15.6456C37.1567 15.3948 38.2162 9.45928 34.6447 5.03122C32.3965 2.2424 28.9214 0.432921 25.1134 0.068645C24.6395 0.0228817 24.1539 0 23.67 0C21.8556 0 20.0094 0.318513 18.1822 0.946385C15.9049 1.72894 13.6512 2.9975 11.4849 4.71728C6.69737 8.51655 3.21498 13.3711 1.41421 18.7538C0.718463 20.8333 0.280095 22.9494 0.09729 25.0591C0.153678 24.4047 0.235531 23.7502 0.34103 23.0958V23.0958Z" fill="#70B852"/>
<path d="M51.4055 41.1742C51.0181 41.1742 50.6297 41.1449 50.2386 41.0854C48.4397 40.8127 46.899 39.5661 45.9004 37.5754C45.0446 35.8693 44.6126 33.6828 44.6826 31.4193C44.7654 28.7376 45.5421 26.2014 46.869 24.2775C48.4652 21.9637 50.7743 20.6109 53.5464 20.3665C56.324 20.1213 58.5467 20.7857 60.151 22.3408C61.2688 23.4235 62.0537 24.9246 62.4838 26.8009C63.0068 29.079 62.7012 31.3598 61.6253 33.2224C59.9346 36.1476 58.1011 38.2948 56.1766 39.6027C54.6396 40.6479 53.0389 41.1742 51.4055 41.1742V41.1742ZM54.6269 22.7709C54.3477 22.7709 54.0584 22.7838 53.7592 22.8103C51.7029 22.9915 50.0586 23.9562 48.8717 25.676C47.8103 27.2146 47.1874 29.2812 47.1191 31.4953C47.0618 33.356 47.402 35.1234 48.0768 36.4697C48.5243 37.3621 49.3255 38.4659 50.6015 38.6591C52.0358 38.8769 53.4127 38.5199 54.8115 37.569C56.4295 36.4688 58.0129 34.5916 59.518 31.9877C60.282 30.6669 60.4912 29.0204 60.1083 27.3509C59.7863 25.9451 59.2316 24.8541 58.4594 24.1063C57.5417 23.2176 56.2548 22.7691 54.626 22.7691L54.6269 22.7709Z" fill="white"/>
<path d="M60.9732 39.3246C61.6462 39.3246 62.2919 38.7287 62.261 38.0286C62.261 38.013 62.2592 37.9974 62.2583 37.9819C61.7481 36.7124 61.759 34.4691 62.3119 31.7636C62.9086 28.843 64.0854 25.6432 65.3105 23.6122C65.6597 23.0328 65.476 22.2787 64.9012 21.9281C64.3255 21.5767 63.5761 21.7615 63.2278 22.34C61.8499 24.6263 60.5839 28.0476 59.9255 31.2693C59.448 33.6051 59.1297 36.6291 59.97 38.8194C60.201 39.1241 60.5566 39.3237 60.975 39.3237L60.9732 39.3246Z" fill="white"/>
<path d="M159.723 23.0318C159.749 23.0337 159.775 23.0346 159.802 23.0346C160.475 23.0346 161.12 22.4388 161.089 21.7386C161.072 21.3496 160.9 20.9945 160.627 20.7547C159.297 20.2357 157.852 20.2979 156.765 20.6943C154.586 21.4887 152.597 22.5074 150.849 23.7247C150.56 22.6786 150.077 21.8777 149.391 21.3057C148.639 20.6787 147.683 20.3666 146.549 20.3803C145.469 20.3922 144.243 20.6915 142.801 21.2956C140.253 22.361 137.92 23.7549 135.887 25.4143C135.725 24.5951 135.518 23.8757 135.267 23.2652C135.063 22.7655 134.826 22.3326 134.56 21.9665C134.624 22.1193 134.663 22.2859 134.671 22.4598C134.702 23.1591 134.057 23.7558 133.383 23.7558C133.116 23.7558 132.874 23.6744 132.674 23.5362C133.074 24.1567 133.478 25.3237 133.7 27.2073C133.707 27.2714 133.714 27.3354 133.721 27.3995C133.217 27.9194 132.738 28.4594 132.289 29.0159C130.146 31.6674 128.727 34.6228 128.395 37.1242C128.098 39.3694 128.787 40.4265 129.417 40.918C130.293 41.6008 131.312 41.7536 132.289 41.35C134.171 40.5711 135.597 37.8024 136.103 33.9446C136.283 32.5708 136.377 30.4428 136.247 28.3459C138.352 26.3799 140.902 24.7461 143.736 23.5609C145.114 22.9843 146.944 22.4525 147.836 23.1957C148.295 23.5783 148.581 24.3434 148.686 25.4427C147.863 26.1868 147.111 26.9849 146.438 27.8297C143.769 31.1795 143.044 34.3299 142.848 35.9096C142.715 36.9823 142.742 37.9882 142.924 38.8193C143.141 39.805 143.579 40.5464 144.193 40.9637C144.955 41.4827 145.798 41.5962 146.566 41.2832C148.126 40.648 149.202 38.4074 150.164 33.7908C150.597 31.7113 151.066 29.3115 151.153 27.1414C151.162 26.9345 151.166 26.7332 151.167 26.5364C152.979 25.083 155.13 23.8986 157.594 22.9998C158.179 22.7866 158.988 22.7499 159.723 23.0318V23.0318ZM133.688 33.6224C133.487 35.1545 133.114 36.511 132.609 37.5425C132.028 38.7314 131.508 39.0197 131.362 39.0801C131.269 39.1186 131.155 39.1652 130.918 38.9849C130.832 38.876 130.603 38.2143 130.94 36.7407C131.357 34.9248 132.404 32.8655 133.867 30.9599C133.848 31.9832 133.78 32.914 133.687 33.6233L133.688 33.6224ZM147.777 33.2874C147.422 34.9971 147.062 36.3096 146.677 37.3008C146.167 38.6161 145.769 38.9355 145.673 38.9968C145.651 38.9877 145.615 38.9703 145.564 38.9355C145.373 38.7598 144.975 37.6541 145.363 35.5893C145.603 34.3098 146.331 31.7891 148.526 29.1312C148.339 30.5315 148.051 31.974 147.777 33.2865V33.2874Z" fill="white"/>
<path d="M161.963 21.5244C161.971 21.5316 161.981 21.5387 161.99 21.5467C161.981 21.5396 161.971 21.5316 161.963 21.5244Z" fill="white"/>
<path d="M161.63 21.28C161.645 21.2899 161.658 21.299 161.673 21.3089C161.658 21.299 161.645 21.2899 161.63 21.28Z" fill="white"/>
<path d="M162.128 21.6636C162.138 21.6716 162.148 21.6805 162.157 21.6886C162.147 21.6796 162.138 21.6716 162.128 21.6636Z" fill="white"/>
<path d="M161.812 21.4072C161.82 21.4134 161.828 21.4196 161.836 21.4258C161.827 21.4196 161.82 21.4134 161.812 21.4072Z" fill="white"/>
<path d="M160.917 20.8782C160.947 20.8919 160.976 20.9056 161.006 20.9203C160.977 20.9056 160.947 20.8919 160.917 20.8782Z" fill="white"/>
<path d="M160.751 20.8049C160.774 20.8148 160.799 20.8248 160.822 20.8356C160.799 20.8257 160.774 20.8148 160.751 20.8049Z" fill="white"/>
<path d="M161.292 21.0703C161.309 21.0802 161.326 21.0901 161.343 21.1C161.326 21.0901 161.309 21.0802 161.292 21.0703Z" fill="white"/>
<path d="M161.1 20.967C161.121 20.977 161.141 20.9878 161.16 20.9986C161.141 20.9878 161.12 20.9779 161.1 20.967Z" fill="white"/>
<path d="M160.493 23.4832C160.503 23.4912 160.512 23.4983 160.521 23.5073C160.512 23.4992 160.503 23.4912 160.493 23.4832Z" fill="white"/>
<path d="M161.454 21.1665C161.467 21.1746 161.48 21.1818 161.493 21.1899C161.48 21.1818 161.467 21.1746 161.454 21.1665Z" fill="white"/>
<path d="M160.187 23.2615C160.187 23.2615 160.193 23.2649 160.196 23.2667C160.193 23.2649 160.19 23.2632 160.187 23.2615Z" fill="white"/>
<path d="M160.29 23.3284C160.299 23.3346 160.309 23.3408 160.317 23.3479C160.309 23.3417 160.3 23.3355 160.29 23.3284Z" fill="white"/>
<path d="M159.955 23.1335C159.955 23.1335 159.96 23.1355 159.962 23.1374C159.96 23.1365 159.957 23.1355 159.955 23.1335Z" fill="white"/>
<path d="M160.391 23.4016C160.402 23.4096 160.412 23.4177 160.422 23.4257C160.411 23.4177 160.401 23.4096 160.391 23.4016Z" fill="white"/>
<path d="M159.838 23.0786C159.838 23.0786 159.844 23.0812 159.847 23.0829C159.844 23.0812 159.841 23.0803 159.838 23.0786Z" fill="white"/>
<path d="M161.162 20.999C161.206 21.0219 161.249 21.0457 161.293 21.0704C161.249 21.0457 161.207 21.0219 161.162 20.999Z" fill="white"/>
<path d="M160.318 23.3486C160.342 23.3658 160.367 23.3829 160.39 23.4009C160.367 23.3829 160.342 23.3658 160.318 23.3486Z" fill="white"/>
<path d="M160.626 20.7546C160.668 20.7711 160.709 20.7876 160.75 20.805C160.709 20.7876 160.667 20.7711 160.626 20.7546Z" fill="white"/>
<path d="M160.423 23.4263C160.446 23.4443 160.469 23.4632 160.492 23.4821C160.469 23.4632 160.446 23.4443 160.423 23.4263Z" fill="white"/>
<path d="M161.345 21.1006C161.381 21.1216 161.419 21.1436 161.455 21.1665C161.419 21.1445 161.382 21.1226 161.345 21.1006Z" fill="white"/>
<path d="M160.823 20.8362C160.854 20.8499 160.885 20.8636 160.917 20.8783C160.886 20.8636 160.855 20.8499 160.823 20.8362Z" fill="white"/>
<path d="M161.005 20.9204C161.037 20.936 161.068 20.9515 161.1 20.968C161.068 20.9515 161.037 20.936 161.005 20.9204Z" fill="white"/>
<path d="M160.522 23.5078C160.554 23.5353 160.586 23.5636 160.616 23.5938C160.586 23.5646 160.554 23.5362 160.522 23.5078Z" fill="white"/>
<path d="M162.158 21.6892C162.205 21.7313 162.252 21.7734 162.297 21.8173C162.252 21.7734 162.205 21.7313 162.158 21.6892Z" fill="white"/>
<path d="M159.847 23.083C159.883 23.0986 159.92 23.116 159.955 23.1333C159.92 23.116 159.883 23.0986 159.847 23.083Z" fill="white"/>
<path d="M161.991 21.5474C162.037 21.5849 162.083 21.6233 162.128 21.6636C162.083 21.6242 162.037 21.5849 161.991 21.5474Z" fill="white"/>
<path d="M159.723 23.0317C159.762 23.0464 159.8 23.0619 159.838 23.0784C159.8 23.0619 159.762 23.0464 159.723 23.0317Z" fill="white"/>
<path d="M161.673 21.3093C161.72 21.3414 161.766 21.3743 161.811 21.4082C161.766 21.3743 161.72 21.3414 161.673 21.3093Z" fill="white"/>
<path d="M160.196 23.2681C160.227 23.2873 160.259 23.3083 160.289 23.3294C160.258 23.3083 160.227 23.2882 160.196 23.2681Z" fill="white"/>
<path d="M161.837 21.4275C161.879 21.4595 161.921 21.4916 161.962 21.5245C161.921 21.4916 161.88 21.4586 161.837 21.4275Z" fill="white"/>
<path d="M161.493 21.1904C161.54 21.2197 161.585 21.249 161.63 21.2801C161.585 21.2499 161.54 21.2197 161.493 21.1904Z" fill="white"/>
<path d="M159.963 23.1372C160.039 23.1747 160.114 23.2168 160.188 23.2626C160.114 23.2168 160.039 23.1756 159.963 23.1372Z" fill="white"/>
<path d="M174.093 24.391C173.531 24.0185 172.775 24.1759 172.405 24.7415C170.885 27.0672 169.724 29.0955 168.699 30.8848C167.55 32.8911 166.643 34.4763 165.666 35.7266C163.637 38.3232 162.595 38.8824 162.254 39.0023C162.166 38.7588 162.062 38.1786 162.153 37.0995C162.265 35.7797 162.636 34.0608 163.227 32.1287C163.985 29.6501 164.268 27.4974 164.067 25.73C163.88 24.0807 163.284 22.7636 162.297 21.8173C161.791 21.3322 161.22 20.9862 160.627 20.7546C160.9 20.9944 161.072 21.3505 161.089 21.7386C161.12 22.4378 160.475 23.0346 159.801 23.0346C159.775 23.0346 159.749 23.0337 159.723 23.0318C160.043 23.1545 160.349 23.3375 160.616 23.5929C161.949 24.8697 162.049 27.6448 160.898 31.4065C160.18 33.7578 159.762 35.8327 159.691 37.4052C159.602 39.4059 160.08 40.6965 161.11 41.2401C162.009 41.7133 163.077 41.5156 164.284 40.6507C165.237 39.9679 166.347 38.8211 167.581 37.2413C168.666 35.8529 169.66 34.1175 170.811 32.1085C171.818 30.3485 172.961 28.3532 174.441 26.0888C174.811 25.5232 174.655 24.7626 174.093 24.3901V24.391Z" fill="#0072BB"/>
<path d="M73.3103 31.0852C72.9847 31.0852 72.6664 31.2243 72.4272 31.4476C71.3522 33.2233 70.3236 34.8918 69.1522 36.2107C67.8534 37.6733 66.5101 38.5529 64.9249 38.9785C63.2269 39.4343 62.7449 38.7872 62.563 38.5437C62.4457 38.3872 62.3447 38.1987 62.2583 37.9827C62.2592 37.9982 62.2611 38.0138 62.2611 38.0293C62.292 38.7286 61.6472 39.3253 60.9732 39.3253C60.5549 39.3253 60.1993 39.1258 59.9683 38.821C60.1347 39.2558 60.3466 39.6585 60.6122 40.0155C61.1906 40.7916 62.1892 41.5925 63.8526 41.5925C64.3565 41.5925 64.9204 41.5192 65.5525 41.349C69.9543 40.1665 72.2207 36.5045 74.5854 32.5972C74.5963 32.5267 74.6008 32.4554 74.5972 32.3821C74.5663 31.6801 74.0315 31.0861 73.3094 31.0861L73.3103 31.0852Z" fill="#70B852"/>
<path d="M82.6887 22.8349C82.6985 22.8313 82.7092 22.8286 82.719 22.8259C82.7092 22.8286 82.6994 22.8322 82.6887 22.8349Z" fill="#0072BB"/>
<path d="M83.8801 20.3967C83.9292 20.4095 83.9784 20.4233 84.0266 20.4379C83.9784 20.4233 83.9292 20.4095 83.8801 20.3967Z" fill="#0072BB"/>
<path d="M84.0685 20.4507C84.1221 20.4681 84.1749 20.4855 84.2286 20.5056C84.1758 20.4855 84.1221 20.4672 84.0685 20.4507Z" fill="#0072BB"/>
<path d="M83.6992 20.3564C83.7547 20.3665 83.8093 20.3784 83.8638 20.3921C83.8093 20.3784 83.7547 20.3674 83.6992 20.3564Z" fill="#0072BB"/>
<path d="M82.4469 22.9283C82.4469 22.9283 82.4529 22.9257 82.4555 22.9248C82.4529 22.9257 82.4495 22.9274 82.4469 22.9283Z" fill="#0072BB"/>
<path d="M81.9412 20.4994C82.0721 20.4563 82.2022 20.4206 82.3313 20.3914C82.2022 20.4206 82.0721 20.4563 81.9412 20.4994Z" fill="#0072BB"/>
<path d="M82.3468 20.3886C82.4741 20.3602 82.5996 20.3392 82.7251 20.3254C82.6005 20.3401 82.4741 20.3611 82.3468 20.3886Z" fill="#0072BB"/>
<path d="M82.7451 20.3225C82.8024 20.3161 82.8588 20.3115 82.9152 20.3079C82.8588 20.3115 82.8024 20.3161 82.7451 20.3225Z" fill="#0072BB"/>
<path d="M82.9325 20.3071C82.9925 20.3034 83.0525 20.3025 83.1126 20.3025C83.0525 20.3025 82.9934 20.3043 82.9325 20.3071Z" fill="#0072BB"/>
<path d="M83.1344 20.3025C83.1862 20.3025 83.2381 20.3043 83.2899 20.3071C83.2381 20.3043 83.1862 20.3025 83.1344 20.3025Z" fill="#0072BB"/>
<path d="M83.3199 20.3088C83.3772 20.3125 83.4345 20.318 83.4909 20.3244C83.4345 20.318 83.3772 20.3125 83.3199 20.3088Z" fill="#0072BB"/>
<path d="M83.5137 20.3281C83.5628 20.3345 83.6119 20.3419 83.661 20.351C83.6119 20.3428 83.5628 20.3345 83.5137 20.3281Z" fill="#0072BB"/>
<path d="M81.3455 23.6286C81.641 23.3915 81.9221 23.2021 82.1813 23.0602C82.4296 22.8232 82.5887 22.4937 82.5733 22.1385C82.5423 21.4365 82.0076 20.8425 81.2854 20.8425C81.2254 20.8425 81.1663 20.8471 81.1072 20.8563C80.6915 21.0759 80.265 21.3587 79.8285 21.7084C78.2823 22.9449 76.5698 24.9933 74.5917 27.9725C73.8777 29.0479 73.2302 30.1188 72.6036 31.1548C72.5444 31.2528 72.4853 31.3498 72.4271 31.4468C72.6663 31.2244 72.9846 31.0844 73.3102 31.0844C74.0324 31.0844 74.5662 31.6784 74.598 32.3804C74.6017 32.4536 74.5971 32.525 74.5862 32.5955C74.6199 32.5405 74.6526 32.4856 74.6863 32.4307C75.2993 31.4166 75.9341 30.3686 76.6189 29.3362C78.4297 26.6096 80.0194 24.6894 81.3464 23.6295L81.3455 23.6286Z" fill="#0072BB"/>
<path d="M81.108 20.8563C81.2472 20.7831 81.3854 20.7163 81.5228 20.6577C81.3854 20.7163 81.2472 20.7831 81.108 20.8563Z" fill="#0072BB"/>
<path d="M83.1971 22.7627C83.2244 22.7654 83.2499 22.77 83.2754 22.7746C83.2499 22.7691 83.2244 22.7645 83.1971 22.7627Z" fill="#0072BB"/>
<path d="M83.1135 22.759C83.1378 22.759 83.1611 22.759 83.1835 22.7617C83.1611 22.7599 83.1378 22.759 83.1135 22.759Z" fill="#0072BB"/>
<path d="M83.0061 22.7645C83.0325 22.7618 83.0579 22.7599 83.0825 22.759C83.057 22.759 83.0316 22.7618 83.0061 22.7645Z" fill="#0072BB"/>
<path d="M83.2954 22.7793C83.3205 22.7856 83.3448 22.7919 83.3681 22.8009C83.3448 22.7919 83.3205 22.7856 83.2954 22.7793Z" fill="#0072BB"/>
<path d="M82.8152 22.7991C82.8304 22.7955 82.8466 22.791 82.8619 22.7883C82.8466 22.7919 82.8313 22.7955 82.8152 22.7991Z" fill="#0072BB"/>
<path d="M81.5283 20.6558C81.6638 20.5981 81.7975 20.5469 81.9312 20.5029C81.7984 20.5469 81.6638 20.5972 81.5283 20.6558Z" fill="#0072BB"/>
<path d="M82.9106 22.7781C82.9286 22.7745 82.9465 22.7718 82.9645 22.77C82.9465 22.7727 82.9286 22.7754 82.9106 22.7781Z" fill="#0072BB"/>
<path d="M81.9303 20.5027C81.9303 20.5027 81.9372 20.5001 81.9407 20.4993C81.9372 20.5001 81.9338 20.5019 81.9303 20.5027Z" fill="#0072BB"/>
<path d="M82.9152 20.3081C82.9208 20.3081 82.9265 20.3081 82.9322 20.3071C82.9265 20.3071 82.9208 20.3071 82.9152 20.3081Z" fill="#0072BB"/>
<path d="M82.3313 20.392C82.3367 20.3911 82.3421 20.3893 82.3467 20.3884C82.3412 20.3893 82.3358 20.3902 82.3313 20.392Z" fill="#0072BB"/>
<path d="M81.5228 20.6575C81.5228 20.6575 81.5264 20.6557 81.5282 20.6548C81.5264 20.6548 81.5246 20.6566 81.5228 20.6575Z" fill="#0072BB"/>
<path d="M82.7251 20.3244C82.7316 20.3244 82.7391 20.3225 82.7457 20.3225C82.7391 20.3225 82.7316 20.3234 82.7251 20.3244Z" fill="#0072BB"/>
<path d="M83.2754 22.7747C83.2819 22.7765 83.2885 22.7775 83.296 22.7793C83.2894 22.7775 83.2829 22.7765 83.2754 22.7747Z" fill="#0072BB"/>
<path d="M82.8624 22.7883C82.8786 22.7847 82.8947 22.782 82.9109 22.7793C82.8947 22.782 82.8795 22.7847 82.8624 22.7883Z" fill="#0072BB"/>
<path d="M82.7197 22.8259C82.7525 22.8158 82.7843 22.8076 82.8152 22.7993C82.7843 22.8066 82.7525 22.8158 82.7197 22.8259Z" fill="#0072BB"/>
<path d="M82.4559 22.9247C82.5369 22.889 82.6142 22.8597 82.6888 22.8359C82.6142 22.8597 82.536 22.8899 82.4559 22.9247Z" fill="#0072BB"/>
<path d="M82.9652 22.7701C82.9787 22.7683 82.9921 22.7665 83.0056 22.7646C82.9921 22.7665 82.9787 22.7683 82.9652 22.7701Z" fill="#0072BB"/>
<path d="M83.2899 20.3071C83.2997 20.3071 83.3095 20.308 83.3193 20.3089C83.3095 20.3089 83.2997 20.308 83.2899 20.3071Z" fill="#0072BB"/>
<path d="M83.4918 20.3245C83.4991 20.3245 83.5064 20.3263 83.5145 20.3272C83.5073 20.3263 83.5 20.3254 83.4918 20.3245Z" fill="#0072BB"/>
<path d="M83.661 20.3501C83.6736 20.3519 83.6861 20.3546 83.6987 20.3564C83.6861 20.3537 83.6736 20.3519 83.661 20.3501Z" fill="#0072BB"/>
<path d="M82.1813 23.0603C82.2722 23.0099 82.3604 22.9669 82.4459 22.9285C82.3604 22.966 82.2722 23.0099 82.1813 23.0603Z" fill="#0072BB"/>
<path d="M83.8638 20.3921C83.8694 20.393 83.8751 20.3949 83.8808 20.3968C83.8751 20.3949 83.8694 20.394 83.8638 20.3921Z" fill="#0072BB"/>
<path d="M84.0266 20.438C84.0401 20.4425 84.0544 20.4461 84.0679 20.4506C84.0544 20.4461 84.0401 20.4416 84.0266 20.438Z" fill="#0072BB"/>
<path d="M133.106 24.4451C133.113 24.4659 133.12 24.4859 133.128 24.5077C133.121 24.4868 133.114 24.4659 133.106 24.4451Z" fill="#FECB2B"/>
<path d="M133.057 24.3169C133.066 24.3379 133.074 24.359 133.082 24.381C133.074 24.359 133.066 24.3379 133.057 24.3169Z" fill="#FECB2B"/>
<path d="M133.001 24.175C133.006 24.1887 133.013 24.2032 133.018 24.2168C133.013 24.2023 133.006 24.1887 133.001 24.175Z" fill="#FECB2B"/>
<path d="M133.25 24.887C133.263 24.9309 133.276 24.9757 133.289 25.0206C133.276 24.9748 133.263 24.9309 133.25 24.887Z" fill="#FECB2B"/>
<path d="M133.304 25.0757C133.314 25.1105 133.323 25.1462 133.332 25.1819C133.323 25.1462 133.313 25.1105 133.304 25.0757Z" fill="#FECB2B"/>
<path d="M133.149 24.5703C133.162 24.6078 133.175 24.6463 133.188 24.6856C133.175 24.6463 133.162 24.6078 133.149 24.5703Z" fill="#FECB2B"/>
<path d="M132.962 24.0835C132.965 24.0915 132.969 24.0995 132.973 24.1074C132.969 24.0995 132.965 24.0915 132.962 24.0835Z" fill="#FECB2B"/>
<path d="M133.207 24.7441C133.216 24.7716 133.224 24.8 133.233 24.8283C133.224 24.8 133.216 24.7716 133.207 24.7441Z" fill="#FECB2B"/>
<path d="M134.936 22.5649C134.941 22.5738 134.946 22.5827 134.951 22.5915C134.946 22.5827 134.941 22.5729 134.936 22.5649Z" fill="#FECB2B"/>
<path d="M134.676 22.1338C134.691 22.1558 134.706 22.1777 134.72 22.1997C134.706 22.1777 134.691 22.1548 134.676 22.1338Z" fill="#FECB2B"/>
<path d="M134.793 22.3169C134.806 22.3389 134.819 22.3599 134.833 22.3819C134.82 22.3599 134.806 22.3379 134.793 22.3169Z" fill="#FECB2B"/>
<path d="M133.347 25.2366C133.359 25.2869 133.372 25.3382 133.385 25.3894C133.372 25.3373 133.359 25.286 133.347 25.2366Z" fill="#FECB2B"/>
<path d="M134.56 21.9663C134.57 21.9799 134.579 21.9935 134.589 22.0071C134.579 21.9935 134.57 21.979 134.56 21.9663Z" fill="#FECB2B"/>
<path d="M135.041 22.7644C135.052 22.7864 135.063 22.8083 135.074 22.8312C135.063 22.8093 135.052 22.7864 135.041 22.7644Z" fill="#FECB2B"/>
<path d="M132.858 23.8618C132.858 23.8618 132.86 23.8653 132.861 23.8671C132.86 23.8653 132.859 23.8636 132.858 23.8618Z" fill="#FECB2B"/>
<path d="M132.894 23.9343C132.897 23.9423 132.902 23.9503 132.905 23.9583C132.902 23.9503 132.897 23.9423 132.894 23.9343Z" fill="#FECB2B"/>
<path d="M132.785 23.7209C132.785 23.7209 132.788 23.727 132.79 23.7305C132.788 23.7279 132.786 23.7244 132.785 23.7209Z" fill="#FECB2B"/>
<path d="M135.144 22.9814C135.154 23.0034 135.164 23.0245 135.174 23.0464C135.164 23.0245 135.154 23.0025 135.144 22.9814Z" fill="#FECB2B"/>
<path d="M133.636 26.7148C133.646 26.7817 133.655 26.8503 133.664 26.9199C133.655 26.8503 133.646 26.7826 133.636 26.7148Z" fill="#FECB2B"/>
<path d="M133.483 25.8306C133.493 25.8809 133.503 25.9312 133.513 25.9834C133.503 25.9322 133.493 25.8809 133.483 25.8306Z" fill="#FECB2B"/>
<path d="M133.671 26.9775C133.681 27.0526 133.69 27.1286 133.7 27.2054C133.69 27.1276 133.68 27.0526 133.671 26.9775Z" fill="#FECB2B"/>
<path d="M133.523 26.0366C133.535 26.0998 133.547 26.1629 133.558 26.2279C133.547 26.1629 133.535 26.0989 133.523 26.0366Z" fill="#FECB2B"/>
<path d="M133.563 26.2563C133.573 26.3149 133.583 26.3744 133.593 26.4339C133.583 26.3735 133.573 26.3149 133.563 26.2563Z" fill="#FECB2B"/>
<path d="M133.601 26.4888C133.612 26.5574 133.623 26.6279 133.633 26.6993C133.623 26.6279 133.612 26.5583 133.601 26.4888Z" fill="#FECB2B"/>
<path d="M133.397 25.4363C133.407 25.4784 133.417 25.5214 133.427 25.5653C133.417 25.5214 133.407 25.4784 133.397 25.4363Z" fill="#FECB2B"/>
<path d="M130.444 23.656C131.16 23.105 131.772 22.867 132.124 23.0016C132.293 23.0666 132.483 23.2386 132.674 23.5343C132.874 23.6725 133.116 23.7539 133.383 23.7539C134.056 23.7539 134.702 23.1581 134.671 22.4579C134.664 22.284 134.624 22.1174 134.56 21.9646C134.119 21.3605 133.595 20.9395 132.992 20.7088C131.783 20.2457 130.428 20.5807 128.965 21.7056C127.595 22.7581 126.095 24.5054 124.378 27.048C123.416 28.473 122.545 29.8313 121.702 31.1456C120.125 33.604 118.741 35.7604 117.482 37.2001C117.674 37.0875 117.895 37.0225 118.117 37.0225C118.839 37.0225 119.372 37.6166 119.404 38.3186C119.413 38.497 119.376 38.6691 119.306 38.8265C120.69 37.245 122.121 35.0154 123.749 32.4773C124.585 31.1749 125.449 29.8286 126.395 28.4273C127.94 26.1382 129.302 24.5328 130.444 23.656H130.444Z" fill="#FECB2B"/>
<path d="M133.438 25.6191C133.451 25.6759 133.463 25.7335 133.476 25.7921C133.464 25.7335 133.451 25.6759 133.438 25.6191Z" fill="#FECB2B"/>
<path d="M135.174 23.0464C135.206 23.1178 135.237 23.1901 135.267 23.2642C135.237 23.1901 135.206 23.1178 135.174 23.0464Z" fill="#FECB2B"/>
<path d="M135.073 22.8313C135.097 22.8807 135.12 22.9301 135.144 22.9814C135.12 22.9311 135.097 22.8807 135.073 22.8313Z" fill="#FECB2B"/>
<path d="M133.633 26.6992C133.633 26.7049 133.635 26.7106 133.636 26.7162C133.636 26.7106 133.634 26.7049 133.633 26.6992Z" fill="#FECB2B"/>
<path d="M134.833 22.3828C134.868 22.4423 134.903 22.5027 134.936 22.5649C134.903 22.5027 134.867 22.4423 134.833 22.3828Z" fill="#FECB2B"/>
<path d="M133.386 25.3894C133.389 25.4048 133.393 25.4202 133.397 25.4357C133.393 25.4202 133.389 25.4048 133.386 25.3894Z" fill="#FECB2B"/>
<path d="M132.79 23.7302C132.813 23.7723 132.836 23.8153 132.86 23.8611C132.837 23.8153 132.814 23.7714 132.79 23.7302Z" fill="#FECB2B"/>
<path d="M132.785 23.721C132.747 23.6541 132.711 23.5919 132.674 23.5352C132.711 23.5928 132.747 23.6541 132.785 23.721Z" fill="#FECB2B"/>
<path d="M133.664 26.9199C133.667 26.939 133.67 26.958 133.671 26.9771C133.669 26.958 133.666 26.939 133.664 26.9199Z" fill="#FECB2B"/>
<path d="M134.951 22.5925C134.981 22.6484 135.011 22.706 135.04 22.7646C135.011 22.706 134.981 22.6493 134.951 22.5925Z" fill="#FECB2B"/>
<path d="M134.589 22.0076C134.619 22.0488 134.648 22.0909 134.676 22.1339C134.647 22.0909 134.618 22.0488 134.589 22.0076Z" fill="#FECB2B"/>
<path d="M134.72 22.2007C134.745 22.2391 134.769 22.2776 134.794 22.3178C134.769 22.2785 134.746 22.2391 134.72 22.2007Z" fill="#FECB2B"/>
<path d="M133.128 24.5081C133.136 24.5289 133.143 24.5489 133.15 24.5697C133.143 24.5489 133.136 24.5289 133.128 24.5081Z" fill="#FECB2B"/>
<path d="M133.233 24.8293C133.238 24.8484 133.245 24.8674 133.25 24.8865C133.245 24.8674 133.238 24.8484 133.233 24.8293Z" fill="#FECB2B"/>
<path d="M133.475 25.7913C133.478 25.804 133.48 25.8167 133.483 25.8294C133.48 25.8167 133.478 25.804 133.475 25.7913Z" fill="#FECB2B"/>
<path d="M133.188 24.6848C133.194 24.7039 133.2 24.7238 133.207 24.7438C133.2 24.7238 133.194 24.7039 133.188 24.6848Z" fill="#FECB2B"/>
<path d="M133.333 25.1809C133.338 25.1991 133.343 25.2172 133.348 25.2353C133.343 25.2172 133.338 25.1991 133.333 25.1809Z" fill="#FECB2B"/>
<path d="M133.289 25.0208C133.295 25.0389 133.299 25.057 133.304 25.0743C133.299 25.0561 133.294 25.038 133.289 25.0208Z" fill="#FECB2B"/>
<path d="M133.427 25.5652C133.43 25.5824 133.435 25.6006 133.438 25.6178C133.435 25.5997 133.43 25.5824 133.427 25.5652Z" fill="#FECB2B"/>
<path d="M133.558 26.2278C133.56 26.2366 133.562 26.2464 133.563 26.2553C133.561 26.2464 133.559 26.2366 133.558 26.2278Z" fill="#FECB2B"/>
<path d="M132.906 23.959C132.925 23.9993 132.944 24.0404 132.962 24.0835C132.943 24.0404 132.925 23.9993 132.906 23.959Z" fill="#FECB2B"/>
<path d="M132.861 23.8674C132.872 23.8894 132.883 23.9114 132.894 23.9342C132.883 23.9114 132.872 23.8894 132.861 23.8674Z" fill="#FECB2B"/>
<path d="M133.593 26.4338C133.596 26.452 133.599 26.4701 133.602 26.4874C133.599 26.4692 133.597 26.4511 133.593 26.4338Z" fill="#FECB2B"/>
<path d="M133.018 24.218C133.031 24.2501 133.045 24.283 133.058 24.3169C133.045 24.283 133.031 24.2501 133.018 24.218Z" fill="#FECB2B"/>
<path d="M133.513 25.9827C133.517 25.9999 133.519 26.018 133.523 26.0353C133.519 26.0171 133.517 25.9999 133.513 25.9827Z" fill="#FECB2B"/>
<path d="M132.973 24.1082C132.982 24.1301 132.992 24.1521 133.001 24.175C132.992 24.1521 132.982 24.1301 132.973 24.1082Z" fill="#FECB2B"/>
<path d="M133.082 24.3809C133.09 24.4019 133.097 24.4239 133.106 24.4449C133.097 24.423 133.09 24.4019 133.082 24.3809Z" fill="#FECB2B"/>
<path d="M177.467 41.1743C177.08 41.1743 176.691 41.145 176.3 41.0855C174.471 40.8082 172.896 39.5314 171.866 37.4903C170.978 35.7312 170.528 33.4952 170.599 31.1942C170.68 28.5693 171.437 26.0999 172.732 24.2391C174.288 22.0022 176.551 20.6925 179.277 20.4527C182.05 20.2083 184.315 20.8462 186.007 22.3473C187.581 23.7431 188.255 25.5397 188.545 26.801C189.068 29.0791 188.762 31.3599 187.686 33.2225C185.995 36.1477 184.162 38.2949 182.237 39.6028C180.7 40.648 179.1 41.1743 177.466 41.1743H177.467ZM180.39 22.8552C180.099 22.8552 179.8 22.869 179.49 22.8964C177.476 23.074 175.875 23.9993 174.729 25.6468C173.703 27.1204 173.102 29.1184 173.035 31.2711C172.978 33.1401 173.344 35.0017 174.039 36.3801C174.509 37.31 175.345 38.4614 176.664 38.661C178.098 38.8788 179.475 38.5219 180.874 37.5709C182.492 36.4707 184.075 34.5935 185.581 31.9896C186.345 30.6689 186.554 29.0223 186.171 27.3529C185.962 26.4413 185.484 25.1526 184.396 24.187C183.398 23.301 182.054 22.8543 180.391 22.8543L180.39 22.8552Z" fill="white"/>
<path d="M228.84 37.7657C228.506 37.1772 227.763 36.9722 227.178 37.3081C227.158 37.32 225.122 38.464 222.311 38.8832C218.657 39.4278 215.445 38.5473 212.766 36.2656C209.886 33.8136 206.869 32.8141 203.798 33.2946C203.452 33.3486 203.107 33.4218 202.762 33.5134C202.769 33.5134 202.777 33.5134 202.784 33.5134C203.506 33.5134 204.04 34.1074 204.072 34.8094C204.09 35.2258 203.869 35.6057 203.546 35.8445C203.755 35.7933 203.963 35.7521 204.171 35.7192C205.249 35.5507 206.334 35.6285 207.397 35.9498C208.657 36.3315 209.934 37.0673 211.192 38.1382C212.985 39.6649 215.014 40.6836 217.222 41.1659C218.212 41.3819 219.236 41.4899 220.285 41.4899C221.096 41.4899 221.922 41.4249 222.76 41.2959C225.998 40.7952 228.288 39.4946 228.384 39.4397C228.969 39.1038 229.173 38.3542 228.84 37.7657V37.7657Z" fill="#FECB2B"/>
<path d="M204.073 34.8085C204.042 34.1065 203.507 33.5125 202.785 33.5125C202.778 33.5125 202.77 33.5125 202.763 33.5125C201.045 33.9673 199.322 34.889 197.528 36.3113C195.754 37.7163 193.813 38.5858 192.76 38.7999C191.541 39.048 189.814 39.2045 188.913 37.708C188.077 36.3196 187.989 33.6946 188.67 30.5076C189.29 27.6117 190.362 25.1478 190.897 24.4824C191.32 23.9562 191.24 23.1837 190.717 22.7581C190.194 22.3316 189.426 22.413 189.003 22.9393C188.051 24.1227 186.909 27.0882 186.288 29.9914C185.232 34.9247 186 37.6019 186.829 38.9793C187.433 39.9843 188.282 40.6881 189.352 41.0726C190.441 41.4634 191.75 41.5082 193.242 41.2053C194.614 40.927 196.937 39.9019 199.036 38.2398C200.623 36.9822 202.105 36.1942 203.547 35.8446C203.871 35.6057 204.092 35.2258 204.074 34.8094L204.073 34.8085Z" fill="#70B852"/>
<path d="M119.404 38.3195C119.373 37.6175 118.839 37.0235 118.117 37.0235C117.894 37.0235 117.675 37.0894 117.482 37.2011C117.339 37.364 117.198 37.5178 117.059 37.6624C115.377 39.3977 114.6 38.9941 114.181 38.7772C113.997 38.682 113.565 38.4577 113.547 37.1837C113.531 36.0378 113.858 34.3839 114.549 32.1277C115.306 29.6492 115.589 27.4965 115.388 25.7291C115.201 24.0798 114.605 22.7627 113.618 21.8164C111.978 20.2448 109.658 20.1204 108.086 20.6933C107.117 21.0466 106.187 21.4438 105.298 21.8832C105.337 21.8795 105.376 21.8768 105.415 21.8768C106.137 21.8768 106.671 22.4708 106.703 23.1728C106.719 23.5499 106.539 23.8968 106.264 24.1366C107.103 23.7174 107.987 23.3375 108.916 22.9989C109.755 22.6932 111.058 22.749 111.938 23.592C113.271 24.8688 113.371 27.6439 112.22 31.4056C111.444 33.9455 111.092 35.7925 111.112 37.2175C111.137 39.0389 111.795 40.2965 113.066 40.9555C114.081 41.4818 115.129 41.5651 116.181 41.2017C117.042 40.9052 117.901 40.3066 118.806 39.3721C118.972 39.2 119.14 39.017 119.308 38.8248C119.378 38.6673 119.414 38.4953 119.406 38.3168L119.404 38.3195Z" fill="#E6007E"/>
<path d="M106.262 24.1374C106.537 23.8976 106.717 23.5507 106.701 23.1736C106.67 22.4716 106.135 21.8776 105.413 21.8776C105.374 21.8776 105.335 21.8794 105.297 21.884C105.367 21.8492 105.438 21.8144 105.51 21.7806C105.322 21.8712 105.135 21.9636 104.95 22.0588C104.946 22.0606 104.944 22.0625 104.94 22.0643C104.828 22.1219 104.716 22.1796 104.606 22.2391C104.498 22.2968 104.39 22.3553 104.282 22.4148C104.27 22.4222 104.257 22.4286 104.244 22.4359C103.52 22.8368 102.827 23.2669 102.169 23.7255C101.881 22.6793 101.397 21.8785 100.711 21.3064C99.9588 20.6795 99.003 20.3665 97.8698 20.3811C96.7902 20.393 95.5642 20.6923 94.1218 21.2964C91.5816 22.359 89.2534 23.7484 87.2243 25.4023C87.0561 24.5273 86.8378 23.7621 86.5713 23.1159C86.0138 21.7632 85.2253 20.8854 84.2285 20.5074C83.2772 20.1468 82.2313 20.2658 81.1081 20.858C81.1672 20.8488 81.2263 20.8442 81.2863 20.8442C82.0085 20.8442 82.5423 21.4382 82.5742 22.1402C82.5896 22.4963 82.4305 22.8249 82.1822 23.0619C82.676 22.791 83.0907 22.6967 83.37 22.8029C83.9502 23.0235 84.6905 24.2783 85.0252 27.1404C85.0352 27.2236 85.0443 27.306 85.0525 27.3902C84.545 27.9128 84.063 28.4556 83.611 29.0157C81.4682 31.6673 80.0495 34.6227 79.7175 37.1241C79.4201 39.3692 80.1086 40.4264 80.7388 40.9179C81.6147 41.6006 82.6342 41.7535 83.611 41.3499C85.4927 40.571 86.9187 37.8023 87.4253 33.9444C87.6063 32.5688 87.7009 30.4426 87.5754 28.3393C89.6781 26.3761 92.2264 24.7442 95.0576 23.5598C96.4364 22.9832 98.2663 22.4514 99.1576 23.1946C99.616 23.5772 99.9033 24.3424 100.008 25.4416C99.1849 26.1857 98.4327 26.9838 97.7597 27.8286C95.0913 31.1785 94.3655 34.3289 94.17 35.9086C94.0372 36.9813 94.0636 37.9881 94.2464 38.8182C94.4629 39.804 94.9012 40.5453 95.5151 40.9627C96.2773 41.4817 97.1203 41.5952 97.8888 41.2821C99.4486 40.6469 100.525 38.4064 101.487 33.7898C101.92 31.7103 102.389 29.3104 102.476 27.1404C102.484 26.9335 102.489 26.7321 102.49 26.5354C102.765 26.3148 103.049 26.1006 103.34 25.8919C103.354 25.8782 103.368 25.8645 103.381 25.8498C103.368 25.8645 103.354 25.8782 103.34 25.8919C104.242 25.2458 105.218 24.66 106.265 24.1364L106.262 24.1374ZM85.0088 33.6223C84.8078 35.1553 84.435 36.5108 83.9302 37.5424C83.349 38.7304 82.8288 39.0196 82.6833 39.08C82.5905 39.1184 82.4759 39.1651 82.2395 38.9848C82.1531 38.8759 81.9239 38.2142 82.2613 36.7406C82.6778 34.9256 83.7256 32.8663 85.1871 30.9607C85.1662 31.9958 85.0989 32.9322 85.0079 33.6223H85.0088ZM99.0985 33.2873C98.7429 34.997 98.3827 36.3095 97.998 37.3007C97.4878 38.616 97.0903 38.9354 96.9939 38.9967C96.9721 38.9876 96.9357 38.9702 96.8848 38.9354C96.6938 38.7597 96.2973 37.654 96.6838 35.5892C96.9239 34.3096 97.6524 31.789 99.847 29.1311C99.6605 30.5314 99.3713 31.9739 99.0985 33.2864V33.2873Z" fill="white"/>
<path d="M18.7653 0.756925C18.3151 0.953708 17.9895 1.41134 17.9895 1.92572C17.9895 2.61583 18.5679 3.19794 19.2537 3.19794C19.3137 3.19794 19.3728 3.19153 19.431 3.1833C20.8498 2.73848 22.2677 2.51058 23.6583 2.51058C24.0657 2.51058 24.4759 2.5298 24.877 2.56824C28.0238 2.86936 30.8786 4.34477 32.7094 6.61463C34.1673 8.42228 34.622 10.6354 34.7466 12.174C34.8849 13.8846 34.6602 15.1715 34.6584 15.1843C34.532 15.8625 34.9785 16.5196 35.6543 16.6478C35.7307 16.6624 35.8089 16.6697 35.8862 16.6697C36.4846 16.6697 37.0003 16.2396 37.1113 15.6465C37.1585 15.3957 38.2181 9.46019 34.6466 5.03213C32.3965 2.2424 28.9214 0.432921 25.1134 0.068645C24.6396 0.0228817 24.1539 0 23.6701 0C21.953 0 20.2086 0.285563 18.4779 0.847537C18.5734 0.816418 18.6689 0.786214 18.7653 0.756925V0.756925Z" fill="white"/>
<path d="M64.101 57.982C63.996 57.779 63.835 57.59 63.646 57.464C63.415 57.31 63.184 57.254 62.897 57.254C62.141 57.254 61.588 57.737 61.588 58.458C61.588 58.808 61.707 59.025 61.91 59.221C62.12 59.424 62.351 59.522 62.533 59.606L62.953 59.802C63.198 59.914 63.38 59.998 63.513 60.124C63.681 60.278 63.744 60.46 63.744 60.67C63.744 61.139 63.443 61.594 62.806 61.594C62.568 61.594 62.337 61.538 62.134 61.335C62.001 61.195 61.889 60.985 61.854 60.74L61.35 60.88C61.413 61.16 61.553 61.482 61.784 61.706C62.106 62.021 62.491 62.084 62.799 62.084C63.639 62.084 64.276 61.51 64.276 60.649C64.276 60.313 64.178 60.04 63.94 59.802C63.744 59.606 63.492 59.48 63.219 59.361L62.771 59.165C62.596 59.088 62.421 59.011 62.281 58.871C62.155 58.752 62.106 58.647 62.106 58.465C62.106 58.031 62.428 57.744 62.89 57.744C63.156 57.744 63.324 57.835 63.415 57.905C63.52 57.989 63.625 58.129 63.688 58.255L64.101 57.982ZM70.51 57.331V62H71.028V57.331H70.51ZM78.0357 62V58.395L81.6757 62.21V57.331H81.1577V60.95L77.5177 57.135V62H78.0357ZM91.7321 57.716C91.1721 57.289 90.6331 57.254 90.3531 57.254C88.9531 57.254 87.9101 58.29 87.9101 59.683C87.9101 61.034 88.9391 62.084 90.3251 62.084C90.6751 62.084 91.2141 62 91.7321 61.629V60.985C91.6481 61.069 91.4591 61.244 91.1931 61.377C90.9481 61.503 90.6401 61.594 90.3251 61.594C89.4711 61.594 88.4421 60.957 88.4421 59.69C88.4421 58.612 89.2401 57.744 90.3181 57.744C90.5911 57.744 90.8781 57.814 91.1231 57.926C91.3611 58.038 91.5851 58.213 91.7321 58.36V57.716ZM100.394 57.331H97.9725V62H100.394V61.51H98.4905V59.697H100.338V59.207H98.4905V57.821H100.394V57.331ZM114.813 62H115.331V57.331H114.302L114.029 57.821H114.813V62ZM123.839 62.112L125.428 59.914C125.778 59.431 125.813 59.018 125.813 58.843C125.813 58.108 125.295 57.254 124.196 57.254C123.265 57.254 122.593 57.926 122.593 58.857C122.593 59.725 123.209 60.397 124.105 60.397C124.252 60.397 124.385 60.376 124.518 60.334L123.447 61.825L123.839 62.112ZM124.203 57.73C124.854 57.73 125.295 58.22 125.295 58.843C125.295 59.452 124.847 59.921 124.21 59.921C123.573 59.921 123.111 59.466 123.111 58.843C123.111 58.213 123.559 57.73 124.203 57.73ZM132.598 58.486C132.612 58.29 132.689 58.115 132.78 57.996C132.962 57.765 133.193 57.73 133.382 57.73C133.956 57.73 134.18 58.115 134.18 58.528C134.18 58.948 133.935 59.144 133.788 59.221C133.641 59.298 133.438 59.333 133.256 59.319V59.781C133.438 59.774 133.641 59.809 133.788 59.879C134.145 60.04 134.25 60.397 134.25 60.663C134.25 61.181 133.851 61.608 133.333 61.608C133.039 61.608 132.766 61.482 132.612 61.258C132.521 61.132 132.465 60.957 132.444 60.789H131.926C131.933 60.957 131.961 61.111 132.031 61.279C132.283 61.881 132.85 62.084 133.333 62.084C134.131 62.084 134.768 61.552 134.768 60.677C134.768 59.872 134.257 59.613 134.096 59.55C134.572 59.312 134.698 58.85 134.698 58.514C134.698 57.87 134.264 57.254 133.382 57.254C133.102 57.254 132.605 57.317 132.297 57.8C132.178 57.989 132.094 58.227 132.08 58.486H132.598ZM143.794 57.072L140.882 61.237H143.276V62H143.794V61.237H144.368V60.761H143.794V57.072ZM141.799 60.761L143.276 58.654V60.761H141.799Z" fill="white"/>
</svg>
