<svg width="204" height="60" viewBox="0 0 204 60" fill="none" xmlns="http://www.w3.org/2000/svg">
<path d="M46.0197 19.5443C45.8285 19.1693 45.4493 18.9361 45.0305 18.9361C44.8555 18.9361 44.6805 18.9785 44.5241 19.0601C39.5139 21.6474 35.1859 23.5467 31.6575 24.7067C30.8214 23.6176 29.6353 22.7446 28.219 22.1772C27.1658 21.755 26.0461 21.5324 24.9807 21.5324C24.7028 21.5324 24.4274 21.5479 24.1632 21.5781C22.6887 21.7484 21.4912 22.3957 20.7928 23.4C20.0378 24.4849 20.105 25.9294 20.9565 26.9117C21.7578 27.8361 23.1067 28.3048 24.9678 28.3048C25.893 28.3048 26.9616 28.1882 28.1429 27.9583C28.9028 27.8108 29.7244 27.6127 30.5856 27.3698C30.7663 27.9583 30.8076 28.5982 30.7079 29.2724C30.2615 32.3015 28.7449 34.7837 26.2001 36.6504C24.7263 37.7313 22.9771 38.5619 21.0011 39.1195C19.2624 39.6102 17.3892 39.8694 15.5833 39.8694C14.6378 39.8694 13.7361 39.7993 12.904 39.6608C10.5091 39.2621 8.31107 38.0687 6.54729 36.2094C4.82239 34.3899 3.53906 31.9787 2.83743 29.2373C1.87979 25.4957 2.06775 21.2977 3.36649 17.4159C4.83293 13.0336 7.68236 9.07109 11.6077 5.95637C14.6759 3.52149 17.9499 2.23517 21.0748 2.23517C21.4378 2.23517 21.8032 2.25228 22.1604 2.28652C24.9637 2.55471 27.5069 3.86875 29.1378 5.89034C30.4365 7.50028 30.8416 9.47133 30.9526 10.8416C31.0758 12.3651 30.8757 13.5113 30.874 13.5227C30.7614 14.1267 31.1592 14.712 31.7612 14.8261C31.8292 14.8392 31.8989 14.8457 31.9678 14.8457C32.5009 14.8457 32.9603 14.4626 33.0591 13.9343C33.1012 13.711 34.0451 8.42467 30.8635 4.48093C28.8599 1.99714 25.7642 0.38557 22.3719 0.0611369C21.9498 0.020379 21.5172 0 21.0861 0C19.4698 0 17.8251 0.283675 16.1975 0.842875C14.1687 1.53984 12.1611 2.66965 10.2312 4.20133C5.96638 7.58506 2.86417 11.9087 1.25999 16.7026C-0.195107 21.0515 -0.393604 25.5781 0.684758 29.7949C1.48117 32.9063 2.95167 35.6583 4.93906 37.7533C7.03826 39.9664 9.66652 41.3889 12.5411 41.8674C13.4736 42.0223 14.4823 42.1013 15.5404 42.1013C17.5683 42.1013 19.6748 41.8087 21.6322 41.2544C23.8627 40.6235 25.8395 39.6819 27.5093 38.4576C30.5111 36.2558 32.3777 33.1933 32.9068 29.6001C33.0543 28.599 32.9854 27.6282 32.7018 26.7119C36.2837 25.5031 40.6012 23.5989 45.5385 21.049C46.0837 20.7678 46.2992 20.092 46.0197 19.5434V19.5443ZM29.2796 25.4085C28.7368 25.5479 28.2142 25.6677 27.7208 25.7631C26.6813 25.9653 25.7601 26.068 24.9831 26.068C23.3036 26.068 22.7584 25.5895 22.6312 25.4427C22.3363 25.102 22.5834 24.7254 22.6125 24.683C23.0152 24.1043 23.8829 23.7717 24.9921 23.7717C25.7755 23.7717 26.606 23.9388 27.3951 24.2551C27.8099 24.4214 28.5763 24.7833 29.2788 25.4085H29.2796Z" fill="#FECB2B"/>
<path d="M22.5396 40.1629C22.5396 39.5483 22.0243 39.0298 21.4135 39.0298C21.3657 39.0298 21.3178 39.0339 21.2717 39.0404C21.1817 39.0673 21.0918 39.0942 21.0011 39.1195C19.2624 39.6102 17.3892 39.8694 15.5833 39.8694C14.6378 39.8694 13.7361 39.7993 12.904 39.6608C10.5091 39.2621 8.31107 38.0687 6.54729 36.2094C4.82239 34.3899 3.53906 31.9787 2.83743 29.2373C1.87979 25.4957 2.06775 21.2977 3.36649 17.4159C4.83293 13.0336 7.68236 9.07109 11.6077 5.95637C14.6759 3.52149 17.9499 2.23517 21.0748 2.23517C21.4378 2.23517 21.8032 2.25228 22.1604 2.28652C24.9637 2.55471 27.5069 3.86875 29.1378 5.89034C30.4365 7.50028 30.8416 9.47133 30.9526 10.8416C31.0758 12.3651 30.8757 13.5113 30.874 13.5227C30.7614 14.1267 31.1592 14.712 31.7612 14.8261C31.8292 14.8392 31.8989 14.8457 31.9678 14.8457C32.5009 14.8457 32.9603 14.4626 33.0591 13.9343C33.1012 13.711 34.0451 8.42467 30.8635 4.48093C28.8599 1.99714 25.7642 0.38557 22.3719 0.0611369C21.9498 0.020379 21.5172 0 21.0861 0C19.4698 0 17.8251 0.283675 16.1975 0.842875C14.1687 1.53984 12.1611 2.66965 10.2312 4.20133C5.96638 7.58506 2.86417 11.9087 1.25999 16.7026C-0.195107 21.0515 -0.393604 25.5781 0.684758 29.7949C1.48117 32.9063 2.95167 35.6583 4.93906 37.7533C7.03826 39.9664 9.66652 41.3889 12.5411 41.8674C13.4736 42.0223 14.4823 42.1013 15.5404 42.1013C17.5683 42.1013 19.6748 41.8087 21.6322 41.2544C21.7254 41.2283 21.8177 41.2006 21.9093 41.1729C22.2779 40.9838 22.5396 40.5966 22.5396 40.1621V40.1629Z" fill="#E6007E"/>
<path d="M0.303801 20.5697C0.305421 21.1827 0.819891 21.6995 1.42915 21.6995C1.94848 21.6995 2.40057 21.3197 2.5221 20.8273C2.71087 19.6763 2.99201 18.5335 3.36551 17.4159C4.83195 13.0336 7.68138 9.07109 11.6068 5.95637C14.6749 3.52149 17.9489 2.23517 21.0738 2.23517C21.4368 2.23517 21.8022 2.25228 22.1595 2.28652C24.9627 2.55471 27.5059 3.86874 29.1368 5.89034C30.4356 7.50028 30.8406 9.47133 30.9516 10.8416C31.0748 12.3651 30.8747 13.5113 30.8731 13.5227C30.7604 14.1267 31.1582 14.712 31.7602 14.8261C31.8283 14.8392 31.8979 14.8457 31.9668 14.8457C32.4999 14.8457 32.9593 14.4626 33.0581 13.9343C33.1003 13.711 34.0441 8.42467 30.8625 4.48093C28.8597 1.99714 25.764 0.38557 22.3717 0.0611369C21.9496 0.020379 21.517 0 21.086 0C19.4696 0 17.825 0.283675 16.1973 0.842874C14.1686 1.53984 12.1609 2.66965 10.2311 4.20133C5.96621 7.58505 2.864 11.9087 1.25982 16.7026C0.640029 18.5546 0.249518 20.4393 0.0866699 22.3182C0.136902 21.7354 0.209819 21.1526 0.303801 20.5697Z" fill="#70B852"/>
<path d="M45.7935 36.6709C45.4484 36.6709 45.1024 36.6448 44.754 36.5918C43.1515 36.3489 41.779 35.2387 40.8894 33.4657C40.127 31.9462 39.7422 29.9988 39.8046 27.9829C39.8783 25.5945 40.5702 23.3357 41.7523 21.6222C43.1742 19.5615 45.2312 18.3567 47.7007 18.1391C50.175 17.9206 52.1551 18.5124 53.5843 19.8974C54.58 20.8617 55.2792 22.1986 55.6624 23.8696C56.1283 25.8986 55.8561 27.9299 54.8976 29.5888C53.3915 32.194 51.7581 34.1064 50.0438 35.2713C48.6745 36.2022 47.2486 36.6709 45.7935 36.6709ZM48.6632 20.2805C48.4145 20.2805 48.1568 20.2919 47.8903 20.3155C46.0584 20.4769 44.5936 21.3361 43.5363 22.8678C42.5908 24.2381 42.0358 26.0787 41.9751 28.0506C41.924 29.7078 42.2271 31.2819 42.8282 32.481C43.2268 33.2758 43.9406 34.2588 45.0773 34.4308C46.355 34.6248 47.5816 34.3069 48.8277 33.46C50.269 32.4802 51.6795 30.8083 53.0204 28.4891C53.701 27.3129 53.8873 25.8464 53.5462 24.3595C53.2594 23.1075 52.7652 22.1358 52.0773 21.4698C51.2599 20.6783 50.1134 20.2789 48.6624 20.2789L48.6632 20.2805Z" fill="#1D1D1B"/>
<path d="M54.3167 35.0233C54.9162 35.0233 55.4914 34.4927 55.4639 33.8691C55.4639 33.8552 55.4623 33.8414 55.4615 33.8275C55.0069 32.6969 55.0167 30.6989 55.5093 28.2893C56.0408 25.6881 57.0891 22.8383 58.1805 21.0295C58.4916 20.5135 58.3279 19.8418 57.8159 19.5296C57.303 19.2166 56.6354 19.3812 56.3251 19.8964C55.0977 21.9327 53.9699 24.9798 53.3833 27.8491C52.958 29.9294 52.6744 32.6227 53.423 34.5734C53.6288 34.8448 53.9456 35.0225 54.3183 35.0225L54.3167 35.0233Z" fill="#1D1D1B"/>
<path d="M142.286 20.5127C142.309 20.5143 142.332 20.5151 142.356 20.5151C142.955 20.5151 143.531 19.9844 143.503 19.3608C143.488 19.0144 143.335 18.6981 143.092 18.4845C141.906 18.0223 140.619 18.0778 139.651 18.4307C137.709 19.1383 135.938 20.0456 134.38 21.1297C134.124 20.198 133.693 19.4847 133.082 18.9753C132.412 18.4169 131.56 18.1389 130.55 18.1511C129.588 18.1617 128.496 18.4283 127.211 18.9663C124.942 19.9151 122.864 21.1566 121.052 22.6345C120.908 21.905 120.723 21.2642 120.5 20.7205C120.318 20.2754 120.107 19.8899 119.87 19.5638C119.927 19.6999 119.961 19.8483 119.969 20.0032C119.996 20.626 119.422 21.1574 118.822 21.1574C118.583 21.1574 118.368 21.0849 118.19 20.9618C118.546 21.5145 118.906 22.5538 119.103 24.2314C119.11 24.2885 119.116 24.3455 119.123 24.4026C118.673 24.8656 118.247 25.3466 117.847 25.8422C115.938 28.2037 114.674 30.8358 114.378 33.0637C114.114 35.0632 114.727 36.0048 115.288 36.4425C116.069 37.0506 116.977 37.1867 117.847 36.8273C119.523 36.1336 120.794 33.6677 121.245 30.2318C121.405 29.0082 121.489 27.113 121.373 25.2455C123.248 23.4945 125.519 22.0395 128.044 20.9838C129.272 20.4703 130.902 19.9967 131.696 20.6586C132.105 20.9993 132.361 21.6808 132.454 22.6598C131.721 23.3225 131.051 24.0333 130.451 24.7857C128.074 27.7692 127.427 30.575 127.253 31.9819C127.135 32.9373 127.158 33.8332 127.321 34.5733C127.514 35.4513 127.905 36.1115 128.451 36.4833C129.13 36.9455 129.881 37.0465 130.565 36.7677C131.955 36.202 132.913 34.2065 133.77 30.0949C134.156 28.2428 134.574 26.1055 134.652 24.1727C134.659 23.9885 134.663 23.8092 134.664 23.6339C136.278 22.3394 138.194 21.2846 140.39 20.4841C140.911 20.2942 141.632 20.2616 142.286 20.5127ZM119.093 29.9449C118.914 31.3094 118.582 32.5175 118.132 33.4362C117.614 34.4951 117.151 34.7519 117.021 34.8057C116.939 34.8399 116.837 34.8815 116.626 34.7209C116.549 34.6239 116.345 34.0345 116.645 32.7221C117.016 31.1048 117.95 29.2707 119.253 27.5736C119.236 28.4849 119.176 29.3139 119.092 29.9457L119.093 29.9449ZM131.644 29.6465C131.328 31.1692 131.007 32.3382 130.664 33.221C130.21 34.3924 129.856 34.6769 129.77 34.7315C129.75 34.7233 129.718 34.7078 129.672 34.6769C129.502 34.5204 129.148 33.5356 129.493 31.6966C129.707 30.5571 130.356 28.3121 132.311 25.9449C132.145 27.1921 131.888 28.4768 131.644 29.6457V29.6465Z" fill="#1D1D1B"/>
<path d="M144.281 19.17C144.289 19.1764 144.298 19.1828 144.306 19.1899C144.298 19.1836 144.289 19.1764 144.281 19.17Z" fill="#1D1D1B"/>
<path d="M143.985 18.9524C143.998 18.9614 144.011 18.9695 144.024 18.9785C144.011 18.9695 143.998 18.9614 143.985 18.9524Z" fill="#1D1D1B"/>
<path d="M144.428 19.2939C144.437 19.3011 144.446 19.3091 144.454 19.3162C144.445 19.3083 144.437 19.3011 144.428 19.2939Z" fill="#1D1D1B"/>
<path d="M144.146 19.0658C144.154 19.0713 144.161 19.0769 144.169 19.0824C144.161 19.0769 144.154 19.0713 144.146 19.0658Z" fill="#1D1D1B"/>
<path d="M143.349 18.5946C143.376 18.6068 143.402 18.6191 143.429 18.6321C143.403 18.6191 143.376 18.6068 143.349 18.5946Z" fill="#1D1D1B"/>
<path d="M143.202 18.5294C143.223 18.5382 143.244 18.5471 143.265 18.5567C143.244 18.5479 143.223 18.5382 143.202 18.5294Z" fill="#1D1D1B"/>
<path d="M143.684 18.7657C143.699 18.7746 143.714 18.7834 143.729 18.7922C143.714 18.7834 143.699 18.7746 143.684 18.7657Z" fill="#1D1D1B"/>
<path d="M143.513 18.6737C143.531 18.6825 143.549 18.6922 143.566 18.7018C143.549 18.6922 143.53 18.6833 143.513 18.6737Z" fill="#1D1D1B"/>
<path d="M142.972 20.9146C142.98 20.9217 142.988 20.9281 142.997 20.936C142.988 20.9289 142.98 20.9217 142.972 20.9146Z" fill="#1D1D1B"/>
<path d="M143.828 18.8513C143.84 18.8587 143.852 18.8652 143.863 18.8725C143.852 18.8652 143.84 18.8587 143.828 18.8513Z" fill="#1D1D1B"/>
<path d="M142.699 20.7173C142.699 20.7173 142.706 20.7208 142.708 20.7225C142.706 20.7208 142.702 20.719 142.699 20.7173Z" fill="#1D1D1B"/>
<path d="M142.791 20.7767C142.799 20.7823 142.808 20.7878 142.816 20.7941C142.808 20.7886 142.8 20.7831 142.791 20.7767Z" fill="#1D1D1B"/>
<path d="M142.493 20.6031C142.493 20.6031 142.498 20.6051 142.5 20.6071C142.498 20.6061 142.495 20.6051 142.493 20.6031Z" fill="#1D1D1B"/>
<path d="M142.881 20.842C142.891 20.8494 142.901 20.8569 142.91 20.8643C142.9 20.8569 142.89 20.8494 142.881 20.842Z" fill="#1D1D1B"/>
<path d="M142.388 20.5542C142.388 20.5542 142.394 20.5565 142.397 20.5581C142.394 20.5565 142.391 20.5557 142.388 20.5542Z" fill="#1D1D1B"/>
<path d="M143.568 18.7021C143.607 18.7225 143.646 18.7437 143.685 18.7657C143.646 18.7437 143.608 18.7225 143.568 18.7021Z" fill="#1D1D1B"/>
<path d="M142.816 20.7947C142.838 20.8099 142.859 20.8252 142.88 20.8412C142.859 20.8252 142.838 20.8099 142.816 20.7947Z" fill="#1D1D1B"/>
<path d="M143.091 18.4845C143.128 18.4992 143.164 18.5138 143.201 18.5293C143.164 18.5138 143.127 18.4992 143.091 18.4845Z" fill="#1D1D1B"/>
<path d="M142.909 20.864C142.93 20.8801 142.95 20.8969 142.971 20.9138C142.951 20.8969 142.93 20.8801 142.909 20.864Z" fill="#1D1D1B"/>
<path d="M143.731 18.7927C143.763 18.8115 143.796 18.831 143.829 18.8514C143.796 18.8319 143.764 18.8123 143.731 18.7927Z" fill="#1D1D1B"/>
<path d="M143.266 18.5571C143.293 18.5694 143.321 18.5816 143.349 18.5946C143.322 18.5816 143.294 18.5694 143.266 18.5571Z" fill="#1D1D1B"/>
<path d="M143.428 18.6321C143.456 18.6459 143.485 18.6598 143.513 18.6745C143.485 18.6598 143.456 18.6459 143.428 18.6321Z" fill="#1D1D1B"/>
<path d="M142.998 20.9365C143.026 20.961 143.054 20.9862 143.082 21.0131C143.054 20.9871 143.026 20.9618 142.998 20.9365Z" fill="#1D1D1B"/>
<path d="M144.455 19.3168C144.497 19.3543 144.539 19.3918 144.579 19.4309C144.539 19.3918 144.497 19.3543 144.455 19.3168Z" fill="#1D1D1B"/>
<path d="M142.396 20.5583C142.429 20.5722 142.461 20.5877 142.493 20.6032C142.461 20.5877 142.429 20.5722 142.396 20.5583Z" fill="#1D1D1B"/>
<path d="M144.306 19.1904C144.347 19.2239 144.388 19.2581 144.428 19.294C144.388 19.2589 144.347 19.2239 144.306 19.1904Z" fill="#1D1D1B"/>
<path d="M142.286 20.5127C142.32 20.5257 142.354 20.5396 142.388 20.5543C142.354 20.5396 142.321 20.5257 142.286 20.5127Z" fill="#1D1D1B"/>
<path d="M144.023 18.9785C144.065 19.007 144.106 19.0364 144.146 19.0666C144.106 19.0364 144.065 19.007 144.023 18.9785Z" fill="#1D1D1B"/>
<path d="M142.708 20.723C142.735 20.7401 142.763 20.7589 142.79 20.7776C142.763 20.7589 142.735 20.741 142.708 20.723Z" fill="#1D1D1B"/>
<path d="M144.169 19.0837C144.206 19.1123 144.244 19.1408 144.281 19.1701C144.244 19.1408 144.207 19.1115 144.169 19.0837Z" fill="#1D1D1B"/>
<path d="M143.863 18.8726C143.904 18.8986 143.945 18.9247 143.985 18.9524C143.945 18.9255 143.904 18.8986 143.863 18.8726Z" fill="#1D1D1B"/>
<path d="M142.499 20.6064C142.567 20.6399 142.635 20.6774 142.7 20.7181C142.635 20.6774 142.567 20.6407 142.499 20.6064Z" fill="#1D1D1B"/>
<path d="M155.087 21.7232C154.587 21.3915 153.913 21.5317 153.584 22.0355C152.23 24.1068 151.195 25.9132 150.282 27.5068C149.259 29.2936 148.45 30.7055 147.58 31.819C145.773 34.1316 144.845 34.6297 144.541 34.7365C144.462 34.5196 144.369 34.0028 144.451 33.0417C144.551 31.8663 144.881 30.3354 145.408 28.6146C146.083 26.4072 146.335 24.4899 146.156 22.9158C145.989 21.4469 145.458 20.2739 144.579 19.431C144.129 18.999 143.62 18.6909 143.092 18.4846C143.335 18.6982 143.488 19.0153 143.503 19.3609C143.531 19.9837 142.956 20.5152 142.356 20.5152C142.332 20.5152 142.309 20.5144 142.286 20.5127C142.571 20.622 142.844 20.785 143.082 21.0124C144.269 22.1496 144.358 24.6211 143.333 27.9714C142.693 30.0656 142.321 31.9136 142.258 33.314C142.179 35.0959 142.604 36.2453 143.522 36.7295C144.322 37.1509 145.273 36.9749 146.349 36.2046C147.198 35.5964 148.187 34.575 149.286 33.1681C150.253 31.9315 151.138 30.3859 152.163 28.5967C153.061 27.0291 154.079 25.2521 155.398 23.2354C155.727 22.7316 155.588 22.0542 155.087 21.7224V21.7232Z" fill="#0072BB"/>
<path d="M65.3069 27.6853C65.0169 27.6853 64.7333 27.8092 64.5202 28.0081C63.5626 29.5895 62.6463 31.0755 61.6027 32.2502C60.4458 33.5528 59.2491 34.3362 57.837 34.7152C56.3244 35.1212 55.895 34.5449 55.7329 34.328C55.6284 34.1886 55.5385 34.0207 55.4615 33.8283C55.4623 33.8422 55.4639 33.8561 55.4639 33.8699C55.4915 34.4927 54.9171 35.0242 54.3167 35.0242C53.944 35.0242 53.6272 34.8465 53.4214 34.575C53.5697 34.9622 53.7585 35.3209 53.9951 35.6388C54.5103 36.3301 55.3999 37.0433 56.8818 37.0433C57.3306 37.0433 57.8329 36.9781 58.396 36.8265C62.3173 35.7733 64.3363 32.5119 66.4428 29.0319C66.4525 28.9692 66.4566 28.9056 66.4533 28.8404C66.4258 28.2152 65.9494 27.6861 65.3061 27.6861L65.3069 27.6853Z" fill="#70B852"/>
<path d="M73.6616 20.3376C73.6706 20.3343 73.6805 20.3318 73.6895 20.3293C73.6805 20.3318 73.6714 20.3351 73.6616 20.3376Z" fill="#0072BB"/>
<path d="M74.7229 18.1659C74.7667 18.1773 74.8104 18.1895 74.8533 18.2026C74.8104 18.1895 74.7667 18.1773 74.7229 18.1659Z" fill="#0072BB"/>
<path d="M74.8906 18.214C74.9384 18.2295 74.9854 18.245 75.0332 18.2629C74.9862 18.245 74.9384 18.2287 74.8906 18.214Z" fill="#0072BB"/>
<path d="M74.5617 18.13C74.6111 18.139 74.6597 18.1496 74.7084 18.1618C74.6597 18.1496 74.6111 18.1398 74.5617 18.13Z" fill="#0072BB"/>
<path d="M73.446 20.4208C73.446 20.4208 73.4521 20.4182 73.4547 20.4174C73.4521 20.4182 73.4486 20.42 73.446 20.4208Z" fill="#0072BB"/>
<path d="M72.9956 18.2572C73.1123 18.2189 73.2281 18.1871 73.3432 18.161C73.2281 18.1871 73.1123 18.2189 72.9956 18.2572Z" fill="#0072BB"/>
<path d="M73.3569 18.1585C73.4704 18.1333 73.5822 18.1145 73.694 18.1023C73.583 18.1153 73.4704 18.1341 73.3569 18.1585Z" fill="#0072BB"/>
<path d="M73.7118 18.0998C73.7628 18.0941 73.8131 18.0901 73.8633 18.0868C73.8131 18.0901 73.7628 18.0941 73.7118 18.0998Z" fill="#0072BB"/>
<path d="M73.8787 18.086C73.9322 18.0827 73.9857 18.0819 74.0391 18.0819C73.9857 18.0819 73.933 18.0835 73.8787 18.086Z" fill="#0072BB"/>
<path d="M74.0586 18.0819C74.1048 18.0819 74.151 18.0835 74.1971 18.086C74.151 18.0835 74.1048 18.0819 74.0586 18.0819Z" fill="#0072BB"/>
<path d="M74.2238 18.0876C74.2749 18.0909 74.3259 18.0958 74.3761 18.1015C74.3259 18.0958 74.2749 18.0909 74.2238 18.0876Z" fill="#0072BB"/>
<path d="M74.3964 18.1047C74.4402 18.1104 74.4839 18.117 74.5277 18.1251C74.4839 18.1178 74.4402 18.1104 74.3964 18.1047Z" fill="#0072BB"/>
<path d="M72.4649 21.0442C72.7282 20.8331 72.9786 20.6643 73.2095 20.538C73.4307 20.3269 73.5724 20.0334 73.5587 19.7171C73.5311 19.0919 73.0547 18.5629 72.4114 18.5629C72.358 18.5629 72.3053 18.5669 72.2527 18.5751C71.8824 18.7707 71.5024 19.0226 71.1135 19.334C69.7362 20.4353 68.2106 22.2596 66.4485 24.913C65.8125 25.8708 65.2356 26.8245 64.6774 27.7473C64.6247 27.8345 64.5721 27.9209 64.5202 28.0073C64.7333 27.8092 65.0169 27.6845 65.3069 27.6845C65.9502 27.6845 66.4258 28.2135 66.4541 28.8388C66.4574 28.904 66.4533 28.9676 66.4436 29.0303C66.4736 28.9814 66.5027 28.9325 66.5327 28.8836C67.0788 27.9804 67.6443 27.047 68.2544 26.1275C69.8675 23.6992 71.2837 21.989 72.4657 21.045L72.4649 21.0442Z" fill="#0072BB"/>
<path d="M72.2535 18.5751C72.3774 18.5099 72.5006 18.4504 72.6229 18.3982C72.5006 18.4504 72.3774 18.5099 72.2535 18.5751Z" fill="#0072BB"/>
<path d="M74.1144 20.2731C74.1387 20.2755 74.1614 20.2796 74.1841 20.2837C74.1614 20.2788 74.1387 20.2747 74.1144 20.2731Z" fill="#0072BB"/>
<path d="M74.0399 20.2698C74.0615 20.2698 74.0823 20.2698 74.1023 20.2722C74.0823 20.2706 74.0615 20.2698 74.0399 20.2698Z" fill="#0072BB"/>
<path d="M73.9443 20.2747C73.9678 20.2722 73.9905 20.2706 74.0124 20.2698C73.9897 20.2698 73.967 20.2722 73.9443 20.2747Z" fill="#0072BB"/>
<path d="M74.202 20.2877C74.2244 20.2933 74.2459 20.299 74.2667 20.307C74.2459 20.299 74.2244 20.2933 74.202 20.2877Z" fill="#0072BB"/>
<path d="M73.7742 20.3055C73.7878 20.3023 73.8022 20.2983 73.8157 20.2959C73.8022 20.2991 73.7886 20.3023 73.7742 20.3055Z" fill="#0072BB"/>
<path d="M72.6277 18.3965C72.7485 18.3452 72.8676 18.2995 72.9867 18.2604C72.8684 18.2995 72.7485 18.3443 72.6277 18.3965Z" fill="#0072BB"/>
<path d="M73.8593 20.2868C73.8752 20.2836 73.8912 20.2811 73.9072 20.2795C73.8912 20.2819 73.8752 20.2844 73.8593 20.2868Z" fill="#0072BB"/>
<path d="M72.9858 18.2603C72.9858 18.2603 72.992 18.258 72.9951 18.2572C72.992 18.258 72.9889 18.2595 72.9858 18.2603Z" fill="#0072BB"/>
<path d="M73.8633 18.0868C73.8685 18.0868 73.8737 18.0868 73.879 18.0859C73.8737 18.0859 73.8685 18.0859 73.8633 18.0868Z" fill="#0072BB"/>
<path d="M73.3431 18.1619C73.3481 18.1611 73.3531 18.1594 73.3573 18.1586C73.3523 18.1594 73.3473 18.1602 73.3431 18.1619Z" fill="#0072BB"/>
<path d="M72.6229 18.3985C72.6229 18.3985 72.6265 18.3967 72.6283 18.3958C72.6265 18.3958 72.6247 18.3976 72.6229 18.3985Z" fill="#0072BB"/>
<path d="M73.694 18.1015C73.6998 18.1015 73.7065 18.0999 73.7123 18.0999C73.7065 18.0999 73.6998 18.1007 73.694 18.1015Z" fill="#0072BB"/>
<path d="M74.1841 20.2837C74.19 20.2854 74.1958 20.2862 74.2025 20.2879C74.1966 20.2862 74.1908 20.2854 74.1841 20.2837Z" fill="#0072BB"/>
<path d="M73.8163 20.2957C73.8307 20.2925 73.8451 20.2901 73.8595 20.2877C73.8451 20.2901 73.8315 20.2925 73.8163 20.2957Z" fill="#0072BB"/>
<path d="M73.6891 20.3293C73.7183 20.3203 73.7467 20.313 73.7742 20.3057C73.7467 20.3122 73.7183 20.3203 73.6891 20.3293Z" fill="#0072BB"/>
<path d="M73.4542 20.4173C73.5263 20.3855 73.5951 20.3595 73.6616 20.3383C73.5951 20.3595 73.5255 20.3864 73.4542 20.4173Z" fill="#0072BB"/>
<path d="M73.9078 20.2796C73.9201 20.2779 73.9324 20.2763 73.9447 20.2747C73.9324 20.2763 73.9201 20.2779 73.9078 20.2796Z" fill="#0072BB"/>
<path d="M74.1971 18.0859C74.2061 18.0859 74.2152 18.0868 74.2242 18.0876C74.2152 18.0876 74.2061 18.0868 74.1971 18.0859Z" fill="#0072BB"/>
<path d="M74.377 18.1014C74.3834 18.1014 74.3899 18.1031 74.3972 18.1039C74.3907 18.1031 74.3842 18.1023 74.377 18.1014Z" fill="#0072BB"/>
<path d="M74.5276 18.1243C74.5388 18.1259 74.55 18.1283 74.5612 18.1299C74.55 18.1275 74.5388 18.1259 74.5276 18.1243Z" fill="#0072BB"/>
<path d="M73.2095 20.538C73.2905 20.4932 73.3691 20.4549 73.4452 20.4207C73.3691 20.4541 73.2905 20.4932 73.2095 20.538Z" fill="#0072BB"/>
<path d="M74.7083 18.1617C74.7135 18.1626 74.7188 18.1644 74.724 18.1661C74.7188 18.1644 74.7135 18.1635 74.7083 18.1617Z" fill="#0072BB"/>
<path d="M74.8533 18.2025C74.8656 18.2066 74.8787 18.2099 74.891 18.2139C74.8787 18.2099 74.8656 18.2058 74.8533 18.2025Z" fill="#0072BB"/>
<path d="M118.574 21.7714C118.581 21.7903 118.588 21.8084 118.595 21.8281C118.589 21.8092 118.582 21.7903 118.574 21.7714Z" fill="#FECB2B"/>
<path d="M118.531 21.6572C118.539 21.676 118.546 21.6947 118.553 21.7143C118.546 21.6947 118.539 21.676 118.531 21.6572Z" fill="#FECB2B"/>
<path d="M118.481 21.5309C118.486 21.5432 118.492 21.5564 118.497 21.5687C118.492 21.5555 118.486 21.5432 118.481 21.5309Z" fill="#FECB2B"/>
<path d="M118.703 22.165C118.715 22.2042 118.726 22.2441 118.737 22.2841C118.726 22.2433 118.715 22.2042 118.703 22.165Z" fill="#FECB2B"/>
<path d="M118.751 22.333C118.76 22.364 118.768 22.3958 118.776 22.4276C118.768 22.3958 118.759 22.364 118.751 22.333Z" fill="#FECB2B"/>
<path d="M118.613 21.8831C118.625 21.9165 118.636 21.9507 118.648 21.9858C118.636 21.9507 118.625 21.9165 118.613 21.8831Z" fill="#FECB2B"/>
<path d="M118.446 21.4493C118.45 21.4564 118.453 21.4636 118.456 21.4707C118.453 21.4636 118.45 21.4564 118.446 21.4493Z" fill="#FECB2B"/>
<path d="M118.664 22.0378C118.673 22.0623 118.68 22.0876 118.688 22.1128C118.68 22.0876 118.673 22.0623 118.664 22.0378Z" fill="#FECB2B"/>
<path d="M120.205 20.097C120.209 20.1049 120.214 20.1128 120.218 20.1207C120.214 20.1128 120.209 20.1042 120.205 20.097Z" fill="#FECB2B"/>
<path d="M119.974 19.713C119.987 19.7326 120 19.7521 120.013 19.7717C120 19.7521 119.987 19.7318 119.974 19.713Z" fill="#FECB2B"/>
<path d="M120.077 19.8761C120.09 19.8957 120.101 19.9144 120.113 19.934C120.102 19.9144 120.09 19.8948 120.077 19.8761Z" fill="#FECB2B"/>
<path d="M118.789 22.4764C118.801 22.5213 118.812 22.5669 118.823 22.6126C118.812 22.5661 118.801 22.5205 118.789 22.4764Z" fill="#FECB2B"/>
<path d="M119.87 19.5638C119.879 19.5762 119.887 19.5885 119.896 19.6008C119.887 19.5885 119.879 19.5754 119.87 19.5638Z" fill="#FECB2B"/>
<path d="M120.299 20.2747C120.308 20.2942 120.318 20.3138 120.328 20.3342C120.318 20.3146 120.308 20.2942 120.299 20.2747Z" fill="#FECB2B"/>
<path d="M118.354 21.2521C118.354 21.2521 118.356 21.2556 118.357 21.2574C118.356 21.2556 118.355 21.2538 118.354 21.2521Z" fill="#FECB2B"/>
<path d="M118.386 21.3165C118.389 21.3236 118.393 21.3307 118.396 21.3378C118.393 21.3307 118.389 21.3236 118.386 21.3165Z" fill="#FECB2B"/>
<path d="M118.288 21.1266C118.288 21.1266 118.292 21.132 118.293 21.1351C118.292 21.1328 118.29 21.1297 118.288 21.1266Z" fill="#FECB2B"/>
<path d="M120.39 20.4679C120.399 20.4875 120.408 20.5062 120.417 20.5258C120.408 20.5062 120.399 20.4866 120.39 20.4679Z" fill="#FECB2B"/>
<path d="M119.047 23.793C119.056 23.8525 119.064 23.9136 119.072 23.9756C119.064 23.9136 119.056 23.8533 119.047 23.793Z" fill="#FECB2B"/>
<path d="M118.911 23.0055C118.92 23.0503 118.929 23.0952 118.938 23.1416C118.929 23.096 118.92 23.0503 118.911 23.0055Z" fill="#FECB2B"/>
<path d="M119.078 24.0269C119.087 24.0937 119.095 24.1614 119.104 24.2298C119.095 24.1605 119.087 24.0937 119.078 24.0269Z" fill="#FECB2B"/>
<path d="M118.946 23.1888C118.957 23.2451 118.967 23.3013 118.977 23.3592C118.967 23.3013 118.957 23.2443 118.946 23.1888Z" fill="#FECB2B"/>
<path d="M118.982 23.3845C118.991 23.4367 119 23.4897 119.009 23.5427C119 23.4889 118.991 23.4367 118.982 23.3845Z" fill="#FECB2B"/>
<path d="M119.016 23.5916C119.026 23.6527 119.036 23.7155 119.045 23.779C119.036 23.7155 119.026 23.6535 119.016 23.5916Z" fill="#FECB2B"/>
<path d="M118.834 22.6542C118.843 22.6917 118.852 22.73 118.861 22.7691C118.852 22.73 118.843 22.6917 118.834 22.6542Z" fill="#FECB2B"/>
<path d="M116.203 21.0687C116.841 20.5779 117.387 20.366 117.7 20.4858C117.85 20.5437 118.019 20.697 118.19 20.9602C118.368 21.0833 118.583 21.1559 118.822 21.1559C119.421 21.1559 119.996 20.6252 119.969 20.0016C119.962 19.8467 119.927 19.6984 119.87 19.5622C119.477 19.0242 119.01 18.6493 118.473 18.4438C117.396 18.0314 116.189 18.3297 114.886 19.3316C113.665 20.269 112.329 21.8251 110.8 24.0896C109.943 25.3588 109.167 26.5685 108.415 27.7391C107.011 29.9286 105.778 31.8491 104.656 33.1314C104.828 33.0311 105.024 32.9732 105.222 32.9732C105.865 32.9732 106.341 33.5023 106.369 34.1275C106.376 34.2865 106.344 34.4397 106.281 34.5799C107.515 33.1713 108.789 31.1856 110.239 28.9252C110.984 27.7652 111.753 26.5661 112.596 25.3181C113.973 23.2794 115.186 21.8496 116.204 21.0687H116.203Z" fill="#FECB2B"/>
<path d="M118.871 22.8171C118.882 22.8677 118.893 22.919 118.904 22.9712C118.894 22.919 118.882 22.8677 118.871 22.8171Z" fill="#FECB2B"/>
<path d="M120.417 20.5258C120.445 20.5893 120.474 20.6537 120.5 20.7198C120.474 20.6537 120.445 20.5893 120.417 20.5258Z" fill="#FECB2B"/>
<path d="M120.327 20.3342C120.348 20.3782 120.369 20.4223 120.39 20.4679C120.369 20.4231 120.349 20.3782 120.327 20.3342Z" fill="#FECB2B"/>
<path d="M119.044 23.7791C119.044 23.7844 119.046 23.7897 119.047 23.795C119.047 23.7897 119.045 23.7844 119.044 23.7791Z" fill="#FECB2B"/>
<path d="M120.113 19.9348C120.145 19.9878 120.175 20.0416 120.205 20.097C120.175 20.0416 120.144 19.9878 120.113 19.9348Z" fill="#FECB2B"/>
<path d="M118.824 22.6125C118.827 22.6265 118.831 22.6405 118.834 22.6545C118.831 22.6405 118.827 22.6265 118.824 22.6125Z" fill="#FECB2B"/>
<path d="M118.293 21.1346C118.314 21.1721 118.334 21.2105 118.355 21.2512C118.335 21.2105 118.314 21.1713 118.293 21.1346Z" fill="#FECB2B"/>
<path d="M118.288 21.1265C118.255 21.067 118.223 21.0116 118.19 20.9611C118.223 21.0124 118.255 21.067 118.288 21.1265Z" fill="#FECB2B"/>
<path d="M119.072 23.9755C119.074 23.9927 119.077 24.01 119.079 24.0273C119.076 24.01 119.074 23.9927 119.072 23.9755Z" fill="#FECB2B"/>
<path d="M120.218 20.1215C120.245 20.1712 120.272 20.2225 120.298 20.2747C120.272 20.2225 120.245 20.172 120.218 20.1215Z" fill="#FECB2B"/>
<path d="M119.896 19.6006C119.923 19.6373 119.949 19.6748 119.974 19.7131C119.948 19.6748 119.922 19.6373 119.896 19.6006Z" fill="#FECB2B"/>
<path d="M120.013 19.7726C120.035 19.8068 120.057 19.8411 120.079 19.8769C120.057 19.8419 120.035 19.8068 120.013 19.7726Z" fill="#FECB2B"/>
<path d="M118.595 21.8275C118.601 21.8464 118.608 21.8645 118.615 21.8834C118.608 21.8645 118.601 21.8464 118.595 21.8275Z" fill="#FECB2B"/>
<path d="M118.688 22.1136C118.693 22.1309 118.699 22.1482 118.704 22.1654C118.699 22.1482 118.693 22.1309 118.688 22.1136Z" fill="#FECB2B"/>
<path d="M118.903 22.9705C118.906 22.982 118.908 22.9935 118.911 23.005C118.908 22.9935 118.906 22.982 118.903 22.9705Z" fill="#FECB2B"/>
<path d="M118.647 21.9849C118.653 22.0021 118.659 22.0202 118.665 22.0383C118.659 22.0202 118.653 22.0021 118.647 21.9849Z" fill="#FECB2B"/>
<path d="M118.777 22.4268C118.781 22.4432 118.786 22.4596 118.79 22.4761C118.786 22.4596 118.781 22.4432 118.777 22.4268Z" fill="#FECB2B"/>
<path d="M118.738 22.2841C118.743 22.3005 118.747 22.3169 118.751 22.3326C118.747 22.3161 118.742 22.2997 118.738 22.2841Z" fill="#FECB2B"/>
<path d="M118.86 22.769C118.864 22.7847 118.868 22.8011 118.871 22.8167C118.868 22.8003 118.864 22.7847 118.86 22.769Z" fill="#FECB2B"/>
<path d="M118.978 23.3593C118.979 23.3671 118.981 23.3758 118.982 23.3837C118.98 23.3758 118.979 23.3671 118.978 23.3593Z" fill="#FECB2B"/>
<path d="M118.396 21.3385C118.413 21.3744 118.43 21.4111 118.447 21.4494C118.43 21.4111 118.413 21.3744 118.396 21.3385Z" fill="#FECB2B"/>
<path d="M118.357 21.257C118.366 21.2765 118.376 21.2961 118.386 21.3165C118.376 21.2961 118.366 21.2765 118.357 21.257Z" fill="#FECB2B"/>
<path d="M119.009 23.5427C119.011 23.5592 119.014 23.5756 119.017 23.5912C119.014 23.5748 119.012 23.5583 119.009 23.5427Z" fill="#FECB2B"/>
<path d="M118.497 21.5692C118.508 21.5977 118.52 21.6271 118.532 21.6572C118.52 21.6271 118.508 21.5977 118.497 21.5692Z" fill="#FECB2B"/>
<path d="M118.937 23.1407C118.941 23.1564 118.943 23.1728 118.946 23.1884C118.943 23.172 118.941 23.1564 118.937 23.1407Z" fill="#FECB2B"/>
<path d="M118.456 21.4713C118.464 21.4909 118.473 21.5104 118.481 21.5308C118.473 21.5104 118.464 21.4909 118.456 21.4713Z" fill="#FECB2B"/>
<path d="M118.553 21.7142C118.561 21.733 118.567 21.7525 118.575 21.7713C118.567 21.7517 118.561 21.733 118.553 21.7142Z" fill="#FECB2B"/>
<path d="M158.093 36.6707C157.748 36.6707 157.402 36.6447 157.054 36.5917C155.424 36.3447 154.021 35.2075 153.103 33.3897C152.312 31.823 151.911 29.8316 151.974 27.7823C152.047 25.4444 152.721 23.2451 153.874 21.5879C155.261 19.5956 157.277 18.4291 159.705 18.2155C162.176 17.9979 164.193 18.5661 165.701 19.9029C167.102 21.146 167.704 22.7462 167.961 23.8695C168.427 25.8984 168.155 27.9298 167.196 29.5886C165.69 32.1939 164.057 34.1063 162.342 35.2711C160.973 36.202 159.547 36.6707 158.092 36.6707H158.093ZM160.697 20.3553C160.438 20.3553 160.171 20.3676 159.895 20.392C158.101 20.5502 156.674 21.3743 155.654 22.8416C154.74 24.154 154.204 25.9335 154.145 27.8507C154.094 29.5153 154.42 31.1733 155.039 32.4009C155.457 33.2291 156.203 34.2546 157.378 34.4323C158.655 34.6263 159.882 34.3084 161.128 33.4615C162.569 32.4816 163.98 30.8098 165.321 28.4906C166.001 27.3144 166.188 25.8479 165.847 24.361C165.66 23.5491 165.235 22.4014 164.266 21.5414C163.376 20.7523 162.179 20.3545 160.698 20.3545L160.697 20.3553Z" fill="#1D1D1B"/>
<path d="M203.857 33.6352C203.56 33.111 202.898 32.9285 202.377 33.2276C202.359 33.2382 200.545 34.2572 198.041 34.6305C194.786 35.1155 191.925 34.3313 189.538 32.2992C186.973 30.1153 184.285 29.2252 181.549 29.6531C181.241 29.7012 180.934 29.7665 180.626 29.848C180.632 29.848 180.64 29.848 180.646 29.848C181.29 29.848 181.765 30.377 181.793 31.0022C181.81 31.3731 181.613 31.7114 181.324 31.9242C181.511 31.8785 181.696 31.8418 181.882 31.8125C182.842 31.6625 183.808 31.7318 184.756 32.0179C185.878 32.3578 187.015 33.0132 188.136 33.967C189.733 35.3267 191.541 36.2339 193.508 36.6635C194.389 36.8559 195.302 36.9521 196.236 36.9521C196.959 36.9521 197.695 36.8942 198.441 36.7793C201.326 36.3334 203.366 35.175 203.451 35.1261C203.972 34.827 204.154 34.1593 203.857 33.6352Z" fill="#FECB2B"/>
<path d="M181.794 31.0013C181.767 30.3761 181.29 29.8471 180.647 29.8471C180.641 29.8471 180.633 29.8471 180.627 29.8471C179.096 30.2522 177.562 31.0731 175.963 32.3398C174.383 33.5911 172.655 34.3655 171.716 34.5562C170.63 34.7771 169.092 34.9165 168.289 33.5837C167.545 32.3471 167.466 30.0093 168.073 27.1709C168.625 24.5917 169.58 22.3973 170.056 21.8047C170.434 21.336 170.362 20.648 169.896 20.2689C169.43 19.8891 168.746 19.9616 168.369 20.4303C167.521 21.4843 166.504 24.1255 165.951 26.7111C165.01 31.1048 165.694 33.4892 166.432 34.716C166.971 35.611 167.727 36.2379 168.681 36.5803C169.65 36.9283 170.816 36.9683 172.146 36.6985C173.368 36.4507 175.438 35.5377 177.307 34.0574C178.72 32.9373 180.041 32.2355 181.326 31.9241C181.614 31.7113 181.811 31.373 181.795 31.0021L181.794 31.0013Z" fill="#70B852"/>
<path d="M106.369 34.1283C106.341 33.5031 105.865 32.974 105.222 32.974C105.023 32.974 104.828 33.0327 104.656 33.1322C104.529 33.2773 104.403 33.4142 104.279 33.543C102.781 35.0885 102.089 34.7291 101.716 34.5359C101.552 34.4511 101.168 34.2514 101.151 33.1167C101.137 32.0961 101.428 30.6231 102.043 28.6137C102.718 26.4063 102.97 24.489 102.791 22.9149C102.624 21.446 102.094 20.273 101.215 19.4301C99.7538 18.0305 97.687 17.9197 96.2861 18.4299C95.4233 18.7446 94.5945 19.0984 93.8029 19.4896C93.8369 19.4864 93.8718 19.4839 93.9066 19.4839C94.5499 19.4839 95.0255 20.013 95.0538 20.6382C95.0684 20.9741 94.908 21.283 94.6633 21.4966C95.4103 21.1232 96.1978 20.7849 97.0258 20.4833C97.7728 20.2111 98.9338 20.2608 99.7181 21.0116C100.905 22.1487 100.994 24.6203 99.9693 27.9706C99.2774 30.2326 98.9638 31.8776 98.9816 33.1468C99.0043 34.769 99.5901 35.889 100.723 36.4759C101.627 36.9447 102.56 37.0188 103.498 36.6952C104.265 36.4311 105.03 35.898 105.836 35.0657C105.984 34.9125 106.133 34.7494 106.283 34.5782C106.345 34.438 106.378 34.2848 106.371 34.1258L106.369 34.1283Z" fill="#E6007E"/>
<path d="M94.6617 21.4975C94.9064 21.2839 95.0668 20.975 95.0522 20.6391C95.0247 20.0139 94.5483 19.4848 93.905 19.4848C93.8701 19.4848 93.8353 19.4865 93.8013 19.4906C93.8645 19.4596 93.9277 19.4286 93.9917 19.3984C93.824 19.4791 93.6571 19.5615 93.4926 19.6462C93.4893 19.6479 93.4869 19.6495 93.4837 19.6511C93.384 19.7025 93.2844 19.7538 93.1863 19.8068C93.0899 19.8582 92.9935 19.9104 92.8979 19.9633C92.8866 19.9699 92.8752 19.9756 92.8639 19.9821C92.219 20.3391 91.6016 20.7223 91.015 21.1307C90.7582 20.1989 90.3272 19.4857 89.7163 18.9762C89.0463 18.4178 88.1948 18.139 87.1853 18.1521C86.2236 18.1627 85.1314 18.4292 83.8465 18.9672C81.5836 19.9136 79.5095 21.151 77.702 22.624C77.5521 21.8447 77.3577 21.1633 77.1203 20.5878C76.6236 19.383 75.9212 18.6012 75.0332 18.2646C74.1858 17.9434 73.2541 18.0494 72.2535 18.5768C72.3061 18.5686 72.3588 18.5645 72.4123 18.5645C73.0556 18.5645 73.5311 19.0936 73.5595 19.7188C73.5733 20.0359 73.4315 20.3285 73.2103 20.5397C73.6502 20.2984 74.0197 20.2144 74.2684 20.309C74.7853 20.5054 75.4448 21.623 75.743 24.172C75.7519 24.2462 75.76 24.3196 75.7673 24.3946C75.3152 24.86 74.8858 25.3434 74.4831 25.8423C72.5743 28.2038 71.3104 30.8359 71.0147 33.0638C70.7498 35.0634 71.3631 36.0049 71.9245 36.4426C72.7048 37.0507 73.613 37.1868 74.4831 36.8274C76.1594 36.1337 77.4298 33.6678 77.8811 30.2319C78.0423 29.0067 78.1265 27.1131 78.0147 25.2399C79.8879 23.4914 82.158 22.0379 84.6802 20.9831C85.9084 20.4696 87.5385 19.996 88.3325 20.6579C88.7408 20.9986 88.9968 21.6801 89.09 22.6591C88.3568 23.3218 87.6868 24.0326 87.0872 24.785C84.7101 27.7685 84.0636 30.5743 83.8894 31.9812C83.7711 32.9366 83.7946 33.8333 83.9575 34.5726C84.1503 35.4506 84.5408 36.1108 85.0877 36.4825C85.7666 36.9447 86.5177 37.0458 87.2023 36.767C88.5918 36.2013 89.5502 34.2058 90.4074 30.0941C90.793 28.2421 91.2111 26.1048 91.2889 24.172C91.2962 23.9878 91.3002 23.8085 91.301 23.6332C91.5465 23.4367 91.7993 23.246 92.0586 23.0601C92.0707 23.0479 92.0829 23.0357 92.095 23.0226C92.0829 23.0357 92.0707 23.0479 92.0586 23.0601C92.8615 22.4846 93.7316 21.9629 94.6641 21.4967L94.6617 21.4975ZM75.7284 29.945C75.5493 31.3104 75.2172 32.5176 74.7675 33.4363C74.2498 34.4944 73.7864 34.752 73.6567 34.8058C73.5741 34.84 73.472 34.8816 73.2614 34.721C73.1844 34.624 72.9802 34.0346 73.2808 32.7222C73.6519 31.1058 74.5852 29.2716 75.8872 27.5745C75.8685 28.4964 75.8086 29.3303 75.7276 29.945H75.7284ZM88.2798 29.6466C87.963 31.1693 87.6422 32.3383 87.2995 33.2211C86.845 34.3925 86.4909 34.677 86.4051 34.7316C86.3856 34.7234 86.3532 34.7079 86.3078 34.677C86.1377 34.5205 85.7844 33.5357 86.1288 31.6967C86.3427 30.5572 86.9916 28.3122 88.9466 25.945C88.7805 27.1922 88.5229 28.4769 88.2798 29.6458V29.6466Z" fill="#1D1D1B"/>
<path d="M16.7166 0.674137C16.3156 0.849396 16.0255 1.25698 16.0255 1.71509C16.0255 2.32972 16.5408 2.84817 17.1517 2.84817C17.2051 2.84817 17.2578 2.84246 17.3097 2.83512C18.5736 2.43896 19.8366 2.23598 21.0754 2.23598C21.4384 2.23598 21.8038 2.2531 22.1611 2.28734C24.9643 2.55552 27.5075 3.86956 29.1384 5.89115C30.4372 7.50109 30.8423 9.47215 30.9532 10.8424C31.0764 12.366 30.8763 13.5121 30.8747 13.5235C30.762 14.1275 31.1598 14.7128 31.7618 14.8269C31.8299 14.84 31.8995 14.8465 31.9684 14.8465C32.5015 14.8465 32.9609 14.4634 33.0597 13.9351C33.1019 13.7118 34.0457 8.42548 30.8641 4.48174C28.8597 1.99714 25.764 0.38557 22.3717 0.0611369C21.9496 0.020379 21.517 0 21.086 0C19.5563 0 18.0024 0.25433 16.4606 0.754837C16.5457 0.727122 16.6307 0.700222 16.7166 0.674137Z" fill="#1D1D1B"/>
<path d="M25.0945 52.399C24.922 52.0655 24.6575 51.755 24.347 51.548C23.9675 51.295 23.588 51.203 23.1165 51.203C21.8745 51.203 20.966 51.9965 20.966 53.181C20.966 53.756 21.1615 54.1125 21.495 54.4345C21.84 54.768 22.2195 54.929 22.5185 55.067L23.2085 55.389C23.611 55.573 23.91 55.711 24.1285 55.918C24.4045 56.171 24.508 56.47 24.508 56.815C24.508 57.5855 24.0135 58.333 22.967 58.333C22.576 58.333 22.1965 58.241 21.863 57.9075C21.6445 57.6775 21.4605 57.3325 21.403 56.93L20.575 57.16C20.6785 57.62 20.9085 58.149 21.288 58.517C21.817 59.0345 22.4495 59.138 22.9555 59.138C24.3355 59.138 25.382 58.195 25.382 56.7805C25.382 56.2285 25.221 55.78 24.83 55.389C24.508 55.067 24.094 54.86 23.6455 54.6645L22.9095 54.3425C22.622 54.216 22.3345 54.0895 22.1045 53.8595C21.8975 53.664 21.817 53.4915 21.817 53.1925C21.817 52.4795 22.346 52.008 23.105 52.008C23.542 52.008 23.818 52.1575 23.9675 52.2725C24.14 52.4105 24.3125 52.6405 24.416 52.8475L25.0945 52.399ZM35.6236 51.3295V59H36.4746V51.3295H35.6236ZM47.9872 59V53.0775L53.9672 59.345V51.3295H53.1162V57.275L47.1362 51.0075V59H47.9872ZM70.4884 51.962C69.5684 51.2605 68.6829 51.203 68.2229 51.203C65.9229 51.203 64.2094 52.905 64.2094 55.1935C64.2094 57.413 65.8999 59.138 68.1769 59.138C68.7519 59.138 69.6374 59 70.4884 58.3905V57.3325C70.3504 57.4705 70.0399 57.758 69.6029 57.9765C69.2004 58.1835 68.6944 58.333 68.1769 58.333C66.7739 58.333 65.0834 57.2865 65.0834 55.205C65.0834 53.434 66.3944 52.008 68.1654 52.008C68.6139 52.008 69.0854 52.123 69.4879 52.307C69.8789 52.491 70.2469 52.7785 70.4884 53.02V51.962ZM84.7195 51.3295H80.7405V59H84.7195V58.195H81.5915V55.2165H84.6275V54.4115H81.5915V52.1345H84.7195V51.3295ZM108.407 59H109.258V51.3295H107.568L107.119 52.1345H108.407V59ZM123.235 59.184L125.846 55.573C126.421 54.7795 126.478 54.101 126.478 53.8135C126.478 52.606 125.627 51.203 123.822 51.203C122.292 51.203 121.188 52.307 121.188 53.8365C121.188 55.2625 122.2 56.3665 123.672 56.3665C123.914 56.3665 124.132 56.332 124.351 56.263L122.591 58.7125L123.235 59.184ZM123.833 51.985C124.903 51.985 125.627 52.79 125.627 53.8135C125.627 54.814 124.891 55.5845 123.845 55.5845C122.798 55.5845 122.039 54.837 122.039 53.8135C122.039 52.7785 122.775 51.985 123.833 51.985ZM137.626 53.227C137.649 52.905 137.775 52.6175 137.925 52.422C138.224 52.0425 138.603 51.985 138.914 51.985C139.857 51.985 140.225 52.6175 140.225 53.296C140.225 53.986 139.822 54.308 139.581 54.4345C139.339 54.561 139.006 54.6185 138.707 54.5955V55.3545C139.006 55.343 139.339 55.4005 139.581 55.5155C140.167 55.78 140.34 56.3665 140.34 56.8035C140.34 57.6545 139.684 58.356 138.833 58.356C138.35 58.356 137.902 58.149 137.649 57.781C137.499 57.574 137.407 57.2865 137.373 57.0105H136.522C136.533 57.2865 136.579 57.5395 136.694 57.8155C137.108 58.8045 138.04 59.138 138.833 59.138C140.144 59.138 141.191 58.264 141.191 56.8265C141.191 55.504 140.351 55.0785 140.087 54.975C140.869 54.584 141.076 53.825 141.076 53.273C141.076 52.215 140.363 51.203 138.914 51.203C138.454 51.203 137.637 51.3065 137.131 52.1C136.936 52.4105 136.798 52.8015 136.775 53.227H137.626ZM156.018 50.904L151.234 57.7465H155.167V59H156.018V57.7465H156.961V56.9645H156.018V50.904ZM152.741 56.9645L155.167 53.503V56.9645H152.741Z" fill="#1D1D1B"/>
</svg>
